<svg xmlns="http://www.w3.org/2000/svg" width="100%" viewBox="0 0 525 525" baseProfile="tiny-ps" height="150" xmlns:v="https://vecta.io/nano"><path fill="#fdfefe" d="M526 68l-.469 390.536L1 459l.469-390.536L526 68M84.1 238.892s.123-.079-.202-.64c-.968-.41-1.936-.82-3.388-1.654l-3.299-.559c-5.343.084-9.836 1.714-12.308 6.85 0 0-.03-.091-.507.131-.081.323-.162.646-.575 1.561-.013.447-.026.894-.509 1.906l1.686 8.34c6.496 7.811 14.059 8.213 22.945 1.21l139.499.494c1.146.49 2.292.98 3.385 2.156.503.768 1.006 1.535 1.44 3.165-.078 1.72-.156 3.44-.779 5.606-3.256 1.235-6.503 3.513-9.77 3.542-31.249.271-62.502.162-94.131-.428-1.186-.909-2.282-1.98-3.574-2.698-6.587-3.66-15.633-.728-18.75 6.002-2.971 6.415.401 13.77 7.633 16.467 4.59 1.712 8.722.469 12.826-1.886 2.026-1.162 4.492-2.187 6.763-2.196l108.47-.074c1.979.002 4.023.125 5.922.626 3.712.98 5.504 3.757 5.367 7.451-.14 3.753-2.325 6.168-6.05 6.922-1.455.294-2.982.314-4.477.315-15.995.008-31.994.135-47.984-.153-3.054-.055-6.296-1.359-9.068-2.816-4.878-2.563-9.584-2.647-14.268-.075-4.435 2.435-6.842 6.242-6.378 11.489.46 5.204 3.484 8.612 8.113 10.456 4.397 1.751 8.688 1.146 12.94-1.167 2.329-1.267 5.145-2.287 7.747-2.301l84.477-.076c1.665.001 3.354-.077 4.989.169 3.695.556 6.683 2.804 6.349 6.44-.242 2.632-2.556 5.246-4.417 7.475-.776.93-2.771.842-5.141 1.071-39.35.049-78.7.097-118.767-.055-.738-.068-1.477-.136-2.505-.843-4.758-4.759-10.045-5.401-16.427-1.768-.527.405-1.089.773-1.576 1.221-4.845 4.466-5.543 11.127-1.706 16.143 3.932 5.142 11.832 6.788 17.07 3.579 1.933-1.184 3.903-2.31 6.779-3.306l144.149.008 39.753-.023 24.993-3.829c59.506-14.08 99.904-62.902 103.971-112.936-.618-.124-1.252-.362-1.885-.362-31.166-.02-62.333-.061-93.498.106-1.451.008-3.573 1.562-4.234 2.946-8.848 18.51-23.33 26.843-43.933 25.01-22.171-1.973-39.73-24.007-35.658-44.747 3.19-16.25 16.867-29.577 32.98-32.138 19.116-3.038 36.383 4.645 44.949 20.583 1.984 3.692 4.137 4.667 8.039 4.647l87.998-.087h5.341c-8.314-70.988-70.963-116.444-136.85-117.133l-232.051-.028c-.662 0-1.323.095-2.747.007-1.58-.719-3.339-1.194-4.71-2.199-5.709-4.183-13.422-3.862-18.272.937-4.366 4.32-4.772 11.059-.958 15.932 4.133 5.28 11.763 6.273 18.074 2.848 2.597-1.409 5.744-2.541 8.645-2.549l167.916-.121c1.665 0 3.344-.045 4.992.144 6.024.689 8.745 6.89 5.371 11.906-2.546 3.785-6.397 3.595-10.182 3.595-36.149-.002-72.297.019-108.445-.169-2.493-.013-5.183-1.301-7.423-2.611-4.591-2.684-9.19-2.861-13.8-.628-4.514 2.187-7.263 5.814-7.134 11.081.133 5.443 3.127 9.133 7.891 11.142 4.726 1.994 9.372 1.283 13.812-1.497 1.7-1.064 3.895-1.872 5.869-1.882l70.464-.074c1.663.001 3.761-.482 4.898.327 2.243 1.596 5.174 3.745 5.539 6.03.36 2.253-1.59 5.5-3.49 7.284-1.388 1.303-4.338 1.27-6.592 1.274l-104.948.088c-3.902.008-7.323-.346-10.673-2.944-4.135-3.207-10.472-2.51-14.959.774-4.154 3.041-6.002 7.176-4.925 12.208 1.165 5.443 5.004 8.62 10.239 9.759 5.316 1.156 9.756-1.056 14.487-4.653l95.28.046c2.595.007 5.188.792 8.122 1.811.72 2.847 2.812 6.4 1.805 8.36-1.206 2.347-4.981 3.5-7.804 4.829-1.092.514-2.625.097-3.957.097-47.293-.002-94.585.043-141.878-.124-2.862-.01-5.998-1.237-8.52-2.723-5.804-3.418-13.601-2.384-18.122 2.924-3.779 4.437-3.429 11.742.761 15.934 5.641 5.642 13.718 5.245 21.356-.974l144.595.26c2.111 1.845 4.223 3.69 6.17 6.365-.86 6.754-3.177 8.585-11.298 8.606-20.164.052-40.328.107-60.49-.042-2.094-.016-4.44-1.01-6.217-2.216-5.61-3.806-13.072-3.466-17.917 1.167-4.257 4.07-5.044 10.221-1.927 15.051 3.633 5.629 10.261 7.418 17.677 4.611.471-.339.941-.677 2.078-1.116 1.119-.731 2.238-1.463 4.007-2.047.436-.067.872-.134 1.98-.003.457-.068.913-.136 2.287-.014l56.718.108c.494-.618.987-1.235 2.074-1.78.414.625.827 1.251 1.298 2.503.852.595 1.703 1.19 2.871 1.353-.112.139-.224.278-.11 1.109.532 1.631 1.065 3.262 1.274 5.505-.045.456-.09.912-.667 1.786-2.463 1.548-4.925 3.097-8.313 4.472-20.366.063-40.732.127-62.016-.001l-19.975.004c-9.37.063-18.739.126-29.005-.001l-10.198-.155s-.15.02-.526-.533c-.732-.473-1.465-.946-2.265-1.289m362.147 188.762v-23.739h15.242v-7.628h-41.371v7.97h15.158l.063 20.407c.076 2.64-.892 3.61-4.265 3.34-2.947-.004-5.921-.23-8.823.125-.849.104-1.496 1.862-2.433 3.601a15.93 15.93 0 0 1 .009 3.007c.729.372 1.457.743 2.85 1.259.447-.048.895-.097 2.267-.002H461.6v-7.878c-5.03 0-9.812 0-15.353-.462m-163.483-22.102v-9.573c-10.127 0-19.587-.024-29.046.008-7.542.025-14.832 5.12-15.61 12.656-.925 8.961-.218 18.09-.218 27.084h9.749l.383-6.419h23.725l.541 6.385h10.477l-.001-30.14m-212.421-8.043c-2.819 3.537-7.561 6.819-8.071 10.662-1.202 9.056-.385 18.38-.385 27.582h9.355l.54-6.328h23.927l.303 6.378h10.344v-39.821c-8.335 0-16.441-.113-24.541.052-3.597.073-7.182.71-11.471 1.475m139.609 7.309c-2.483-4.368-5.829-8.352-10.942-8.592-10.732-.505-21.504-.153-32.343-.153v39.711h10.366l.406-6.751c4.124 0 7.935-.177 11.714.09 1.441.102 3.505.845 4.097 1.939 3.605 6.66 9.292 5.082 15.358 4.614l-5.928-7.667c8.015-5.795 11.586-12.922 7.272-23.19m-76.461-8.832h-19.414v39.819h10.209l.556-6.779c3.98 0 7.801-.222 11.573.106 1.57.137 3.426 1.101 4.483 2.286 4.378 4.908 7.668 5.886 14.512 3.695l-5.559-7.152 1.714-1.388c6.718-5.188 9.072-12.026 6.63-19.271-2.582-7.66-7.981-11.313-16.728-11.316h-7.977m168.119 26.368c-3.03-14.263 1.699-19.093 14.371-18.408 6.921.374 13.879.067 20.796.067v-8.004c-10.473 0-20.612-.262-30.731.086-7.645.263-13.704 5.514-14.945 13.035-.742 4.494-.743 9.303-.023 13.802 1.208 7.548 6.717 12.596 14.384 12.927 10.45.451 20.935.113 31.613.113v-24.188h-10.322v16.049c-6.173 0-12.002.467-17.694-.214-2.528-.302-4.778-2.921-7.447-5.264m48.95 10.748c2.271.947 4.52 2.64 6.818 2.712 9.755.305 19.526.13 29.332.13v-7.961c-7.758 0-15.22.091-22.679-.03-5.649-.092-7.615-1.936-8.605-7.983h25.21v-8.064h-25.128c.77-6.06 2.74-7.803 8.94-7.874l22.229-.02v-8.02c-9.795 0-19.3-.508-28.7.266-3.46.285-7.578 2.869-9.82 5.667-6.036 7.532-4.684 23.377 2.404 31.177M17.968 398.239c-8.86 5.198-8.682 26.521-2.934 32.538 2.259 2.364 5.741 4.739 8.806 4.936 9.733.628 19.531.232 29.422.232v-7.965c-7.285 0-14.267.026-21.249-.007-7.86-.037-10.181-2.338-10.2-10.003v-.5c-.008-12.271 1.152-13.447 13.279-13.455l18.242-.001v-8.033c-9.013 0-17.801-.146-26.578.087-2.718.072-5.409 1.172-8.788 2.171m453.813 5.777h13.251V435.7h10.673v-31.756h15.525v-7.621h-43.039c1.022 2.951 1.84 5.316 3.59 7.694m-252.526-3.301v35.004h10.525v-39.748c-2.556 0-4.87.189-7.14-.046-3.139-.324-3.686 1.307-3.385 4.789z"/><path d="M526 67.531l-524.531.467L1 1.049l525 .004v66.478zM1 459.469l524.531-.467.469 66.949-525-.004v-66.478z" fill="#458"/><path fill="#192a5b" d="M124.016 164.959c-3.798 3.65-8.239 5.863-13.554 4.706-5.235-1.139-9.074-4.316-10.239-9.759-1.077-5.032.771-9.168 4.925-12.208 4.487-3.284 10.824-3.982 14.959-.774 3.349 2.598 6.771 2.951 10.673 2.944l104.948-.088c2.255-.005 5.204.029 6.592-1.274 1.9-1.784 3.851-5.03 3.49-7.284-.366-2.285-3.296-4.434-5.539-6.03-1.137-.809-3.235-.327-4.898-.327-23.488-.013-46.977-.054-70.464.074-1.974.011-4.169.818-5.869 1.882-4.44 2.78-9.085 3.491-13.812 1.497-4.764-2.01-7.758-5.7-7.891-11.142-.129-5.267 2.62-8.894 7.134-11.081 4.61-2.234 9.209-2.057 13.8.628 2.239 1.309 4.93 2.598 7.423 2.611l108.445.169c3.785 0 7.636.19 10.182-3.595 3.374-5.016.652-11.217-5.371-11.906-1.648-.188-3.327-.144-4.992-.144-55.972-.001-111.944-.032-167.916.121-2.9.008-6.047 1.139-8.645 2.549-6.311 3.424-13.94 2.432-18.074-2.848-3.814-4.872-3.409-11.612.958-15.932 4.85-4.798 12.563-5.12 18.272-.937 1.371 1.005 3.13 1.48 5.405 2.536 1.679.444 2.662.643 3.646.643l227.104-.017c1.426-.001 2.852-.508 4.277-.779 64.963.525 127.612 45.981 135.926 116.969-1.828 0-3.585 0-5.341 0-29.333.002-58.666-.064-87.998.087-3.902.02-6.055-.955-8.039-4.647-8.566-15.937-25.833-23.62-44.949-20.583-16.113 2.56-29.79 15.888-32.98 32.138-4.072 20.741 13.487 42.775 35.658 44.747 20.604 1.833 35.085-6.5 43.933-25.01.661-1.383 2.783-2.938 4.234-2.946l93.498-.106c.634 0 1.267.238 1.885.362-4.067 50.034-44.465 98.857-104.629 112.619-3.235-.156-5.842-.188-8.383.206-5.615.872-11.197 1.958-17.262 2.959-59.562.004-118.656-.003-177.749.042-1.922.001-3.843.521-5.765.799l-5.856 3.463c-5.239 3.209-13.138 1.563-17.07-3.579-3.836-5.017-3.139-11.677 1.706-16.143.487-.449 1.049-.816 2.192-1.053 5.694.385 11.012-.684 15.472 2.924.015.012.412-.447.63-.686a12.42 12.42 0 0 1 2.891.566c2.488.468 4.3.664 6.111.665l96.611.054c3.941.009 7.88.766 11.823.789 1.488.009 2.983-1.081 4.475-1.67 1.441-.375 3.436-.287 4.211-1.216 1.86-2.23 4.175-4.843 4.417-7.475.334-3.636-2.654-5.885-6.349-6.44-1.635-.246-3.324-.168-4.989-.169-28.159-.015-56.318-.079-84.477.076-2.602.014-5.419 1.034-7.747 2.301-4.252 2.313-8.543 2.918-12.94 1.167-4.629-1.844-7.653-5.251-8.113-10.456-.464-5.247 1.943-9.054 6.378-11.489 4.684-2.572 9.39-2.488 14.268.075 2.772 1.457 6.014 2.761 9.068 2.816 15.991.288 31.989.161 47.984.153 1.494-.001 3.022-.021 4.477-.315 3.726-.753 5.911-3.169 6.05-6.922.138-3.694-1.655-6.471-5.367-7.451-1.899-.502-3.943-.625-5.922-.626-36.157-.033-72.314-.062-108.47.074-2.271.009-4.738 1.033-6.763 2.196-4.104 2.355-8.237 3.597-12.826 1.886-7.233-2.697-10.605-10.052-7.633-16.467 3.117-6.729 12.163-9.662 18.75-6.002 1.292.718 2.388 1.79 3.881 3.374 2.001 1.035 3.694 1.695 5.39 1.705l40.455.068 52.851.637c3.8.052 5.705-2.21 5.442-6.646.078-1.72.156-3.44.56-5.66-.354-1.451-1.033-2.401-1.713-3.351-1.146-.49-2.292-.98-3.943-2.01-2.31-.692-4.116-.974-5.922-.975-39.489-.025-78.979.002-118.468-.058-3.291-.005-6.588-.829-9.869-.744-1.904.049-3.781 1.153-5.671 1.782-7.952 7.044-15.515 6.642-22.019-1.959-.408-3.232-.808-5.674-1.207-8.116.013-.447.026-.894.403-1.78.595-.697.703-.999.687-1.344 0 0 .03.091.349.093 4.476-2.219 8.633-4.439 12.79-6.66.833.122 1.665.245 2.804.936 1.34.928 2.374 1.287 3.407 1.647 0 0-.123.079-.077.412.896.725 1.745 1.117 2.594 1.508 0 0 .15-.02.264.41 3.736.258 7.358.087 10.98-.085l28.871.19c7.218.189 13.674-.001 20.13-.192l61.582.177c2.975.535 5.467.704 8.36.9v-6.156c.045-.456.09-.912.606-1.762 1-2.804 1.719-5.299-1.971-5.804.112-.139.224-.278.265-.572-1-.712-1.929-1.268-2.857-1.824-.414-.625-.827-1.251-1.85-1.909-1.12.513-1.63 1.059-2.141 1.605-18.681.034-37.362.067-56.552-.252-1.156-.179-1.803-.005-2.45.169a2.6 2.6 0 0 1-1.599-.162c-.331-.949-.234-1.991-.434-2.052-2.212-.67-4.471-1.187-6.668-1.968.049-.222.421-.484.797-.513 2.592-2.089 4.187-4.046.849-6.663-3.411-2.674-6.77-2.579-9.933.711.006.017-.028.002-.403.012-2.115 2.239-3.856 4.469-5.678 6.804-3.589-3.452-1.018-7.006.558-9.225 3.037-4.276 11.891-5.407 16.207-2.331 1.596 1.138 3.957 1.658 5.975 1.675l46.961.074c6.162 0 12.387.524 18.459-.214 3.313-.403 6.619-2.624 9.352-4.761.665-.52-.94-3.942-1.501-6.03-2.111-1.845-4.223-3.69-6.696-6.097-3.97-1.671-7.572-3.722-11.187-3.743l-119.299-.097c-3.783.007-7.607.454-11.323 1.164-1.26.241-2.243 1.925-3.353 2.949-6.71 6.249-14.787 6.646-20.428 1.004-4.191-4.192-4.54-11.497-.761-15.934 4.521-5.308 12.318-6.341 18.122-2.924 2.523 1.485 5.658 2.713 8.52 2.723l141.878.124c1.332 0 2.865.417 3.957-.097 2.823-1.329 6.598-2.481 7.804-4.829 1.007-1.96-1.086-5.513-2.025-9.058-2.547-1.521-4.87-3.049-7.201-3.062l-87.878-.021c-3.015.015-6.024 1.219-9.035 1.871m-44.054 88.479c2.735-3.838 1.958-7.813-1.924-8.299-1.813-.227-4.388.65-5.571 1.967-.917 1.022-.881 4.643-.089 5.11 1.959 1.157 4.596 1.168 7.584 1.222m5.875-160.311c-2.291 3.702-1.246 6.653 2.741 7.606 1.716.41 4.513-.926 5.773-2.376.826-.951.406-4.007-.561-5.279-1.988-2.616-4.84-2.384-7.953.05M60.473 193.171c3.358-.121 5.682-1.907 5.003-5.175-.362-1.743-2.896-4.22-4.455-4.224-1.903-.005-4.8 1.846-5.498 3.599-1.21 3.038.683 5.324 4.95 5.8m93.52-69.691c-2.945-2.071-5.926-1.838-7.657 1.179-.782 1.363-.342 4.88.697 5.505 1.729 1.041 4.739 1.33 6.572.51 2.945-1.318 2.88-4.097.388-7.194m27.35 190.709c-.12-2.093.314-4.471-.563-6.175-.55-1.07-3.294-1.865-4.643-1.451-1.588.488-3.402 2.223-3.86 3.785-.375 1.28.765 4.123 1.817 4.462 2.032.654 4.476.031 7.248-.622m-27.071 28.794c-.145-1.119.027-2.42-.493-3.324-1.629-2.831-4.483-4.005-7.024-2.087-1.484 1.12-1.622 4.022-2.366 6.123 2.39.757 4.746 1.722 7.194 2.135.678.114 1.632-1.412 2.688-2.847m-33.407-66.294c-2.941-1.811-5.949-1.865-7.613 1.307-.741 1.412-.267 4.905.761 5.482 1.777.997 4.8 1.25 6.607.378 2.826-1.364 2.863-4.142.245-7.167m-10.489-123.115c-.615 2.02-2.133 4.357-1.569 5.963.476 1.355 3.772 2.96 5.093 2.475 1.813-.665 4.172-3.24 4.116-4.926-.134-4.106-3.346-4.788-7.64-3.512z"/><path fill="#1f2c5c" d="M282.764 406.043l.001 29.648h-10.477l-.541-6.385h-23.725l-.383 6.419h-9.749c0-8.995-.707-18.124.218-27.084.778-7.536 8.068-12.631 15.61-12.656l29.046-.008v10.066m-15.397-2.035c-1.994-.001-4.002.149-5.98-.03-10.48-.948-15.774 4.803-12.914 16.684h23.536c0-4.777-.169-9.243.058-13.689.158-3.102-1.608-3.107-4.7-2.966z"/><path fill="#202d5d" d="M70.692 397.316c3.94-.573 7.525-1.209 11.122-1.283 8.1-.165 16.206-.052 24.541-.052v39.821H96.011l-.303-6.378H71.782l-.54 6.328h-9.355c0-9.202-.816-18.526.385-27.582.51-3.843 5.252-7.125 8.42-10.854m15.77 23.676h9.188v-16.991c-3.644 0-7.113.303-10.512-.058-9.467-1.006-16.083 4.19-12.977 17.048l14.3.001z"/><path fill="#202e5e" d="M210.097 405.173c4.169 9.912.598 17.039-7.417 22.834l5.928 7.667c-6.067.468-11.753 2.047-15.358-4.614-.592-1.094-2.656-1.837-4.097-1.939-3.779-.267-7.59-.09-11.714-.09l-.406 6.751h-10.366v-39.711c10.839 0 21.611-.352 32.343.153 5.113.241 8.459 4.224 11.087 8.948m-9.6 5.075c-2.343-2.053-4.448-5.398-7.081-5.885-5.095-.943-10.488-.275-15.952-.275v16.543c.737.15 1.21.328 1.683.331l12.46.01c6.924-.121 9.302-2.768 8.889-10.724z"/><path fill="#1e2c5c" d="M133.988 395.986h7.479c8.747.003 14.146 3.655 16.728 11.316 2.442 7.246.088 14.084-6.63 19.271-.498.385-.979.792-1.714 1.388l5.559 7.152c-6.845 2.191-10.134 1.213-14.512-3.695-1.057-1.185-2.913-2.15-4.483-2.286-3.772-.329-7.592-.106-11.573-.106l-.556 6.779h-10.209v-39.819h19.911m11.5 23.161c4.881-6.62 2.503-14.213-4.987-14.976-5.196-.529-10.49-.102-15.788-.102v17.461c6.845-.627 13.498-1.237 20.774-2.383z"/><path fill="#1f2c5c" d="M301.756 422.742c2.522 1.955 4.773 4.574 7.301 4.876 5.692.68 11.521.214 17.694.214v-16.049h10.322v24.188c-10.678 0-21.162.339-31.613-.113-7.667-.331-13.176-5.379-14.384-12.927-.72-4.499-.718-9.308.023-13.802 1.241-7.521 7.3-12.772 14.945-13.035 10.119-.348 20.258-.086 30.731-.086v8.004c-6.917 0-13.875.308-20.796-.067-12.671-.686-17.4 4.145-14.225 18.796z"/><path fill="#1d2b5a" d="M350.276 432.858c-6.803-7.555-8.155-23.401-2.119-30.932 2.242-2.798 6.36-5.382 9.82-5.667 9.4-.774 18.905-.266 28.7-.266v8.02c-7.366 0-14.798-.065-22.229.02-6.2.071-8.17 1.813-8.94 7.874h25.128v8.064h-25.21c.99 6.046 2.957 7.891 8.605 7.983 7.459.121 14.921.03 22.679.03v7.961c-9.806 0-19.577.176-29.332-.13-2.299-.072-4.547-1.765-7.103-2.956z"/><path fill="#1f2d5c" d="M18.306 398.055c3.041-.814 5.732-1.914 8.45-1.986 8.778-.232 17.566-.087 26.578-.087v8.033c-6.084 0-12.163-.003-18.242.001-12.127.008-13.287 1.185-13.279 13.455v.5c.019 7.665 2.34 9.965 10.2 10.003l21.249.007v7.965c-9.891 0-19.69.396-29.422-.232-3.065-.198-6.547-2.572-8.806-4.936-5.749-6.017-5.927-27.34 3.272-32.723z"/><path fill="#1e2c5d" d="M431.987 428.147c2.459.127 3.427-.844 3.351-3.484-.19-6.635-.063-13.279-.063-20.407h-15.158v-7.97h41.371v7.628h-15.242c0 8.28 0 16.01.477 24.354 3.487.989 6.542 1.161 9.485 1.83 1.329.302 2.433 1.591 3.639 2.432-1.226.822-2.431 2.314-3.683 2.354-7.134.23-14.281.024-21.419.154-3.58.065-7.152.528-10.728.812-.447.048-.895.097-1.724-.233-1.017-.792-1.652-1.206-2.286-1.62-.063-.756-.127-1.511.29-2.68 4.217-1.332 7.954-2.251 11.69-3.17z"/><path fill="#202e5e" d="M471.316 404.01c-1.284-2.371-2.103-4.736-3.124-7.687h43.039v7.621h-15.525V435.7h-10.673v-31.684c-4.718 0-8.985 0-13.717-.006z"/><path fill="#1a2753" d="M71.529 195.175c.646-1.039 1.629-2.723 2.889-2.964 3.716-.71 7.54-1.157 11.323-1.164l119.299.097c3.614.021 7.217 2.072 10.89 3.56l-144.401.471z"/><path fill="#23315f" d="M219.257 400.243c-.303-3.01.245-4.641 3.383-4.317 2.27.235 4.583.046 7.14.046v39.748h-10.525l.002-35.477z"/><path fill="#26355d" d="M141.23 221.668l6.717 1.746c.2.061.102 1.103.109 1.978-1.153 1.02-2.272 1.752-3.772 2.221l-1.359-1.159-.927 2.539c-6.827 2.805-13.455 1.016-17.088-4.613-3.118-4.83-2.33-10.981 1.927-15.051 4.846-4.633 12.307-4.972 17.917-1.167 1.778 1.206 4.123 2.201 6.217 2.216l60.49.042c8.12-.021 10.438-1.852 11.38-9.021.643 1.673 2.248 5.095 1.583 5.615-2.733 2.137-6.039 4.358-9.352 4.761-6.072.739-12.298.214-18.459.214-15.654 0-31.308.059-46.961-.074-2.019-.017-4.379-.537-5.975-1.675-4.316-3.076-13.17-1.945-16.207 2.331-1.576 2.218-4.147 5.773-.558 9.225 1.822-2.335 3.563-4.565 5.545-6.487-1.677 2.788-1.788 5.296.708 7.328 2.877 2.342 5.578 1.056 8.066-.97z"/><path fill="#1c2644" d="M338.522 89.111c-.964.353-2.39.86-3.816.861l-227.104.017c-.984 0-1.967-.2-3.265-.574.348-.319 1.009-.414 1.671-.414l232.513.11z"/><path fill="#1c2a4d" d="M231.761 267.236c.535 4.213-1.37 6.474-5.17 6.423l-52.851-.637c-13.484-.102-26.97.018-40.455-.068-1.696-.011-3.389-.671-5.202-1.411l93.635-.543c3.267-.028 6.514-2.307 10.043-3.765z"/><path fill="#1d2a49" d="M124.483 164.985c2.545-.679 5.554-1.883 8.569-1.898l87.878.021c2.331.013 4.654 1.541 7.031 2.764-2.544-.024-5.137-.809-7.732-.815l-95.746-.073z"/><path fill="#1a2643" d="M161.484 346.907c1.46-.356 3.381-.875 5.303-.877l177.745.171c.465.21.455.635.455.635l-38.894.157c-48.05.014-96.099-.003-144.61-.086z"/><path fill="#1c2a4a" d="M87.476 256.017c1.422-.65 3.299-1.754 5.203-1.803 3.281-.085 6.578.739 9.869.744l118.468.058c1.806.001 3.611.283 5.689.754l-139.229.247z"/><path fill="#1e284e" d="M279.544 332.086c-1.027.662-2.522 1.751-4.01 1.743-3.942-.023-7.881-.78-11.823-.789l-96.611-.054c-1.812-.001-3.623-.197-5.753-.564l118.197-.335z"/><path fill="#222c51" d="M424.481 435.921c3.113-.355 6.686-.818 10.266-.883l21.419-.154c1.252-.04 2.456-1.532 3.683-2.354-1.206-.841-2.311-2.131-3.639-2.432-2.943-.668-5.998-.84-9.106-1.599 4.684-.384 9.466-.384 14.496-.384v7.878c-12.186 0-24.421 0-37.119-.072z"/><path fill="#273455" d="M345.417 346.903c-.429-.067-.42-.492-.416-.704 5.6-1.211 11.182-2.298 16.797-3.169 2.541-.394 5.148-.362 7.981-.221-7.807 1.589-15.87 2.875-24.362 4.094z"/><path fill="#1e284e" d="M157.952 331.435c-.073.559-.469 1.018-.485 1.005-4.46-3.608-9.779-2.539-15.142-2.998 5.436-3.729 10.723-3.087 15.626 1.992z"/><path d="M77.611 236.134c-3.756 2.316-7.913 4.537-12.437 6.748 2.201-5.131 6.693-6.76 12.437-6.748zm139.052.052c.266 1.577.266 3.364.266 5.947l-7.898-.813c2.441-1.828 4.904-3.377 7.632-5.134zm-70.136 4.775c-5.997.286-12.453.476-19.21.381 6.05-.349 12.4-.413 19.21-.381z" fill="#202d51"/><path fill="#222c51" d="M431.53 428.075c-3.28.991-7.017 1.91-11.135 2.872.359-.957 1.005-2.715 1.854-2.819 2.903-.355 5.877-.13 9.28-.053z"/><path d="M97.537 240.963c-3.174.267-6.796.438-10.472.226 3.305-.363 6.665-.342 10.472-.226zm-33.99 5.241c.634 2.16 1.034 4.602 1.417 7.49a50.41 50.41 0 0 1-1.417-7.49zm152.129-17.447c3.577.158 2.859 2.653 2.02 5.151-.842-1.543-1.374-3.174-2.02-5.151z" fill="#202d51"/><path fill="#1c2a4d" d="M230.854 258.344c.707.607 1.386 1.557 1.774 2.576-.795-.698-1.298-1.465-1.774-2.576z"/><path fill="#192a5b" d="M142.292 228.992c.014-.845.323-1.691.632-2.538.326.299.652.598 1.026 1.209-.422.651-.893.989-1.658 1.329z"/><path d="M213 226.328c.9.243 1.828.799 2.671 1.727-.938-.223-1.79-.818-2.671-1.727zM84.06 238.532c-.871-.079-1.904-.438-3.003-1.154.903.053 1.872.464 3.003 1.154z" fill="#202d51"/><path d="M150.315 225.726c.311-.273.958-.446 1.655-.363-.406.325-.863.394-1.655.363zm59.003.088c.173-.65.683-1.197 1.506-1.745-.181.615-.675 1.232-1.506 1.745z" fill="#26355d"/><path fill="#202d51" d="M86.552 240.457c-.661-.115-1.51-.507-2.372-1.297.72.075 1.452.548 2.372 1.297z"/><path fill="#222c51" d="M419.917 434.366c.725.044 1.36.458 2.045 1.179-.678-.065-1.407-.437-2.045-1.179z"/><path fill="#202d51" d="M64.634 242.908c.254.234.146.536-.284.937-.117-.179-.036-.503.284-.937z"/><path fill="#e7ebf4" d="M79.651 253.646c-2.676-.263-5.313-.273-7.272-1.431-.792-.468-.828-4.089.089-5.11 1.182-1.317 3.757-2.194 5.571-1.967 3.882.486 4.659 4.461 1.612 8.508z"/><path fill="#e8ecf2" d="M86.07 92.846c2.88-2.154 5.733-2.386 7.72.23.967 1.273 1.387 4.328.561 5.279-1.26 1.451-4.057 2.786-5.773 2.376-3.986-.953-5.031-3.904-2.508-7.886z"/><path fill="#e7ecf2" d="M60.071 193.168c-3.865-.473-5.758-2.759-4.548-5.797.698-1.753 3.595-3.603 5.498-3.599 1.559.004 4.093 2.482 4.455 4.224.679 3.267-1.645 5.053-5.405 5.172z"/><path fill="#e7ebf2" d="M154.25 123.755c2.235 2.821 2.299 5.601-.645 6.919-1.833.82-4.843.531-6.572-.51-1.039-.626-1.479-4.143-.697-5.505 1.731-3.017 4.712-3.25 7.914-.903z"/><path fill="#ebf0f5" d="M181.093 314.468c-2.523.373-4.966.997-6.999.343-1.052-.339-2.192-3.182-1.817-4.462.458-1.563 2.272-3.297 3.86-3.785 1.35-.415 4.093.38 4.643 1.451.876 1.704.443 4.082.313 6.454z"/><path fill="#ecf1f7" d="M154.158 343.313c-.942 1.104-1.896 2.631-2.574 2.516-2.448-.413-4.804-1.378-7.194-2.135.744-2.101.882-5.003 2.366-6.123 2.541-1.918 5.394-.743 7.024 2.087.52.903.348 2.204.379 3.654z"/><path fill="#ebeef3" d="M121.12 276.949c2.363 2.765 2.326 5.542-.5 6.906-1.807.872-4.83.619-6.607-.378-1.029-.577-1.502-4.07-.761-5.482 1.664-3.172 4.672-3.119 7.868-1.046z"/><path fill="#ebeff5" d="M110.734 153.395c3.936-1.097 7.148-.416 7.282 3.69.055 1.685-2.303 4.26-4.116 4.926-1.321.485-4.617-1.12-5.093-2.475-.564-1.606.954-3.943 1.927-6.141z"/><path fill="#ebedf5" d="M141.279 221.446c-2.537 2.248-5.238 3.534-8.115 1.192-2.496-2.032-2.385-4.54-.334-7.337.133-.318.167-.303.531-.4 6.07-1.603 8.098-.037 8.338 6.061 0 0-.372.262-.421.484z"/><path fill="#26355d" d="M142.075 220.933c-.617-6.068-2.644-7.634-8.72-6.049 2.8-3.193 6.158-3.288 9.569-.614 3.338 2.617 1.744 4.574-.849 6.663z"/><path fill="#f8fafc" d="M267.845 404.008c2.614-.141 4.38-.137 4.222 2.965-.227 4.446-.058 8.912-.058 13.689h-23.536c-2.86-11.882 2.434-17.633 12.914-16.684 1.978.179 3.986.028 6.458.03z"/><path fill="#f6f8fa" d="M85.971 420.991H72.162c-3.106-12.858 3.51-18.054 12.977-17.048 3.399.361 6.868.058 10.512.058v16.991c-3.05 0-6.119 0-9.679 0z"/><path fill="#f7f8fb" d="M200.598 410.631c.312 7.573-2.066 10.22-8.99 10.341-4.152.073-8.307.016-12.46-.01-.474-.003-.946-.18-1.683-.331v-16.543c5.464 0 10.857-.667 15.952.275 2.633.487 4.738 3.832 7.182 6.268z"/><path fill="#fafbfc" d="M145.176 419.414c-6.965.878-13.617 1.488-20.462 2.115v-17.461c5.298 0 10.592-.427 15.788.102 7.49.763 9.867 8.356 4.675 15.244z"/></svg>