<?xml version="1.0" encoding="UTF-8" standalone="yes"?>
<svg version="1.2" width="100%" viewBox="0 0 525 525" xml:space="preserve" baseProfile="tiny-ps" xmlns="http://www.w3.org/2000/svg">
  <title>bimi-svg-tiny-12-ps</title>
  <path fill="#FDFEFE" stroke="none" d="&#xA;M526.000000,68.000000 &#xA;&#x9;C526.000000,198.022644 526.000000,328.045288 525.531372,458.535706 &#xA;&#x9;C350.375122,459.002319 175.687561,459.001160 1.000000,459.000000 &#xA;&#x9;C1.000000,328.977356 1.000000,198.954727 1.468655,68.464279 &#xA;&#x9;C176.624878,67.997643 351.312439,67.998817 526.000000,68.000000 &#xA;M84.099945,238.891647 &#xA;&#x9;C84.099945,238.891647 84.223083,238.812485 83.897491,238.251450 &#xA;&#x9;C82.929314,237.841217 81.961143,237.430984 80.509575,236.597046 &#xA;&#x9;C79.677017,236.474564 78.844460,236.352081 77.210831,236.037735 &#xA;&#x9;C71.867401,236.122147 67.375221,237.751266 64.902679,242.888062 &#xA;&#x9;C64.902679,242.888062 64.872810,242.796570 64.396118,243.019272 &#xA;&#x9;C64.314873,243.342377 64.233627,243.665466 63.821556,244.580612 &#xA;&#x9;C63.808380,245.027451 63.795208,245.474304 63.312351,246.486740 &#xA;&#x9;C63.857285,249.037949 64.402214,251.589157 64.998123,254.826920 &#xA;&#x9;C71.493942,262.638245 79.056725,263.040192 87.943344,256.037415 &#xA;&#x9;C134.287872,256.054688 180.632416,256.071960 227.442505,256.531403 &#xA;&#x9;C228.588699,257.021301 229.734879,257.511230 230.827393,258.687561 &#xA;&#x9;C231.330154,259.455170 231.832932,260.222748 232.267868,261.853058 &#xA;&#x9;C232.189865,263.572815 232.111847,265.292603 231.488556,267.458740 &#xA;&#x9;C228.232300,268.693329 224.985092,270.972046 221.718369,271.000366 &#xA;&#x9;C190.469116,271.271484 159.216553,271.162109 127.587814,270.572296 &#xA;&#x9;C126.401634,269.663727 125.306122,268.591980 124.014023,267.874023 &#xA;&#x9;C117.426529,264.213776 108.380737,267.146332 105.263832,273.875610 &#xA;&#x9;C102.292404,280.290802 105.664482,287.645447 112.897102,290.342896 &#xA;&#x9;C117.486656,292.054565 121.618935,290.812225 125.723434,288.457245 &#xA;&#x9;C127.749031,287.295013 130.215714,286.270233 132.486862,286.261658 &#xA;&#x9;C168.643250,286.125122 204.800323,286.153931 240.957184,286.187256 &#xA;&#x9;C242.936172,286.189087 244.980591,286.312164 246.879669,286.813751 &#xA;&#x9;C250.591660,287.794159 252.383774,290.571106 252.246231,294.264740 &#xA;&#x9;C252.106506,298.017303 249.921524,300.432953 246.195801,301.186279 &#xA;&#x9;C244.740997,301.480469 243.213654,301.500305 241.719269,301.501099 &#xA;&#x9;C225.723770,301.509521 209.725632,301.635681 193.735092,301.348083 &#xA;&#x9;C190.680954,301.293121 187.439148,299.988770 184.666763,298.532166 &#xA;&#x9;C179.788834,295.969299 175.083160,295.885345 170.399231,298.457001 &#xA;&#x9;C165.964096,300.892029 163.557053,304.698730 164.021225,309.945923 &#xA;&#x9;C164.481613,315.150055 167.504837,318.557770 172.134247,320.401550 &#xA;&#x9;C176.531509,322.152863 180.822449,321.548004 185.074615,319.234650 &#xA;&#x9;C187.403183,317.967804 190.219406,316.947968 192.821884,316.933624 &#xA;&#x9;C220.980026,316.778412 249.139404,316.842743 277.298431,316.857300 &#xA;&#x9;C278.963104,316.858154 280.652496,316.780640 282.287292,317.026367 &#xA;&#x9;C285.982574,317.581879 288.970367,319.830566 288.636292,323.466644 &#xA;&#x9;C288.394440,326.098846 286.079865,328.712280 284.219727,330.942108 &#xA;&#x9;C283.444214,331.871704 281.448914,331.783752 279.078949,332.013184 &#xA;&#x9;C239.728958,332.061768 200.378952,332.110352 160.311676,331.958038 &#xA;&#x9;C159.573425,331.890106 158.835159,331.822144 157.806183,331.115326 &#xA;&#x9;C153.048065,326.355988 147.761292,325.713898 141.378906,329.347656 &#xA;&#x9;C140.851822,329.752899 140.289932,330.120361 139.803009,330.569153 &#xA;&#x9;C134.957962,335.035309 134.260254,341.695831 138.096512,346.712372 &#xA;&#x9;C142.028809,351.854492 149.928055,353.500061 155.166580,350.291412 &#xA;&#x9;C157.100021,349.107178 159.069214,347.981262 161.945511,346.985168 &#xA;&#x9;C209.995087,346.990295 258.044647,347.007111 306.094238,346.992798 &#xA;&#x9;C319.058777,346.988922 332.023285,346.890625 345.846771,346.970062 &#xA;&#x9;C353.909760,345.684021 361.972778,344.397949 370.839447,343.140869 &#xA;&#x9;C430.345642,329.061005 470.743683,280.238708 474.810364,230.204437 &#xA;&#x9;C474.192169,230.080521 473.558777,229.842896 472.925262,229.842484 &#xA;&#x9;C441.759094,229.822281 410.592712,229.781876 379.427460,229.948776 &#xA;&#x9;C377.976807,229.956543 375.854889,231.511261 375.193817,232.894333 &#xA;&#x9;C366.346100,251.404343 351.864136,259.737610 331.260620,257.904388 &#xA;&#x9;C309.089355,255.931625 291.531036,233.897476 295.602844,213.156952 &#xA;&#x9;C298.792969,196.907440 312.469971,183.579742 328.582825,181.019287 &#xA;&#x9;C347.699127,177.981552 364.966034,185.664688 373.531830,201.601852 &#xA;&#x9;C375.516144,205.293732 377.668854,206.268982 381.570679,206.248978 &#xA;&#x9;C410.902802,206.098648 440.236023,206.164200 469.568909,206.162247 &#xA;&#x9;C471.325378,206.162140 473.081879,206.162231 474.910248,206.162231 &#xA;&#x9;C466.596252,135.174393 403.947388,89.717987 338.060455,89.029129 &#xA;&#x9;C260.709991,89.017593 183.359512,89.005684 106.009041,89.000832 &#xA;&#x9;C105.347496,89.000786 104.685951,89.095810 103.262367,89.008240 &#xA;&#x9;C101.681953,88.289551 99.923218,87.814247 98.552238,86.809715 &#xA;&#x9;C92.842773,82.626312 85.130432,82.948143 80.279953,87.746613 &#xA;&#x9;C75.913536,92.066200 75.508446,98.806000 79.322380,103.678215 &#xA;&#x9;C83.455742,108.958488 91.084938,109.950790 97.396126,106.526398 &#xA;&#x9;C99.993538,105.117058 103.140320,103.985687 106.040642,103.977745 &#xA;&#x9;C162.012360,103.824432 217.984604,103.855713 273.956726,103.856293 &#xA;&#x9;C275.621429,103.856316 277.300354,103.811661 278.948334,104.000137 &#xA;&#x9;C284.972198,104.689095 287.693695,110.890114 284.319794,115.905685 &#xA;&#x9;C281.773438,119.691048 277.922455,119.500832 274.137695,119.500626 &#xA;&#x9;C237.989166,119.498642 201.840363,119.519928 165.692703,119.331352 &#xA;&#x9;C163.199707,119.318352 160.509293,118.030243 158.269836,116.720848 &#xA;&#x9;C153.678696,114.036446 149.080322,113.859596 144.469940,116.093254 &#xA;&#x9;C139.955978,118.280197 137.207062,121.907013 137.336136,127.174469 &#xA;&#x9;C137.469498,132.617111 140.463623,136.306976 145.227249,138.316681 &#xA;&#x9;C149.953384,140.310547 154.598846,139.599976 159.038864,136.819580 &#xA;&#x9;C160.738678,135.755157 162.933792,134.947861 164.908173,134.937134 &#xA;&#x9;C188.395737,134.809509 211.884216,134.850327 235.372467,134.863159 &#xA;&#x9;C237.035904,134.864059 239.133667,134.381653 240.270615,135.190567 &#xA;&#x9;C242.513794,136.786530 245.444443,138.935638 245.809998,141.220856 &#xA;&#x9;C246.170456,143.474243 244.219864,146.720474 242.319534,148.504700 &#xA;&#x9;C240.931503,149.807907 237.981781,149.774475 235.727081,149.778976 &#xA;&#x9;C200.744644,149.848755 165.761948,149.798721 130.779510,149.866974 &#xA;&#x9;C126.877533,149.874588 123.456398,149.521255 120.106987,146.923264 &#xA;&#x9;C115.972076,143.716003 109.635086,144.413330 105.148018,147.697586 &#xA;&#x9;C100.993546,150.738403 99.145760,154.873428 100.222931,159.905914 &#xA;&#x9;C101.387924,165.348740 105.227287,168.526245 110.461975,169.664963 &#xA;&#x9;C115.777489,170.821274 120.217606,168.609085 124.949280,165.011642 &#xA;&#x9;C156.709274,165.008652 188.469330,164.976105 220.229111,165.057663 &#xA;&#x9;C222.823990,165.064346 225.416855,165.849350 228.350769,166.868256 &#xA;&#x9;C229.070648,169.715622 231.163132,173.268005 230.156204,175.228424 &#xA;&#x9;C228.950531,177.575760 225.175598,178.728531 222.352631,180.057068 &#xA;&#x9;C221.260239,180.571198 219.727524,180.153839 218.395401,180.153793 &#xA;&#x9;C171.102737,180.152130 123.809906,180.197281 76.517822,180.029846 &#xA;&#x9;C73.655838,180.019714 70.520287,178.792480 67.997452,177.307114 &#xA;&#x9;C62.193001,173.889603 54.396004,174.922760 49.875446,180.230804 &#xA;&#x9;C46.096920,184.667572 46.446007,191.972855 50.636868,196.164505 &#xA;&#x9;C56.277863,201.806564 64.354851,201.409714 71.993011,195.190048 &#xA;&#x9;C119.993980,195.154465 167.994949,195.118881 216.588272,195.449631 &#xA;&#x9;C218.699570,197.294678 220.810852,199.139725 222.758469,201.814880 &#xA;&#x9;C221.898224,208.569229 219.581116,210.399780 211.460678,210.420822 &#xA;&#x9;C191.297104,210.473083 171.132904,210.528137 150.970459,210.378494 &#xA;&#x9;C148.876648,210.362946 146.530731,209.368073 144.753159,208.162231 &#xA;&#x9;C139.142715,204.356339 131.681534,204.696152 126.835800,209.328766 &#xA;&#x9;C122.578934,213.398422 121.791512,219.549606 124.909103,224.379745 &#xA;&#x9;C128.542572,230.009140 135.169693,231.798141 142.586548,228.990448 &#xA;&#x9;C143.057159,228.651733 143.527771,228.313019 144.664307,227.874878 &#xA;&#x9;C145.783066,227.143417 146.901825,226.411942 148.670822,225.827942 &#xA;&#x9;C149.106934,225.761032 149.543045,225.694138 150.650940,225.824722 &#xA;&#x9;C151.107681,225.756531 151.564407,225.688339 152.937744,225.810989 &#xA;&#x9;C171.618774,225.777328 190.299789,225.743652 209.655899,225.918716 &#xA;&#x9;C210.149429,225.301132 210.642960,224.683548 211.730362,224.138824 &#xA;&#x9;C212.143890,224.764099 212.557419,225.389374 213.028809,226.641693 &#xA;&#x9;C213.880463,227.236557 214.732132,227.831421 215.899597,227.994415 &#xA;&#x9;C215.787567,228.133286 215.675522,228.272171 215.789474,229.103699 &#xA;&#x9;C216.321793,230.734482 216.854111,232.365265 217.063873,234.608765 &#xA;&#x9;C217.018738,235.064713 216.973602,235.520676 216.396896,236.394760 &#xA;&#x9;C213.934189,237.943253 211.471497,239.491760 208.084274,240.866684 &#xA;&#x9;C187.718292,240.929962 167.352310,240.993225 146.068619,240.865402 &#xA;&#x9;C139.717957,240.929092 133.367310,240.992798 126.093513,240.868912 &#xA;&#x9;C116.723991,240.932037 107.354462,240.995163 97.088516,240.868149 &#xA;&#x9;C93.729271,240.847198 90.370033,240.826248 86.890427,240.713531 &#xA;&#x9;C86.890427,240.713531 86.740334,240.733185 86.364494,240.180313 &#xA;&#x9;C85.632225,239.707504 84.899956,239.234680 84.099945,238.891647 &#xA;M446.246857,427.653625 &#xA;&#x9;C446.246857,419.924500 446.246857,412.195374 446.246857,403.914978 &#xA;&#x9;C451.438385,403.914978 456.497040,403.914978 461.488708,403.914978 &#xA;&#x9;C461.488708,400.972717 461.488708,398.596191 461.488708,396.286743 &#xA;&#x9;C447.393921,396.286743 433.677856,396.286743 420.117615,396.286743 &#xA;&#x9;C420.117615,398.996552 420.117615,401.394135 420.117615,404.256287 &#xA;&#x9;C425.339569,404.256287 430.236908,404.256287 435.275482,404.256287 &#xA;&#x9;C435.275482,411.384521 435.148224,418.028473 435.338409,424.663330 &#xA;&#x9;C435.414062,427.302979 434.446594,428.273804 431.073242,428.003143 &#xA;&#x9;C428.126526,427.999023 425.152618,427.773041 422.249939,428.128540 &#xA;&#x9;C421.400696,428.232574 420.754089,429.990814 419.817230,431.729187 &#xA;&#x9;C419.880585,432.484894 419.943939,433.240631 419.826324,434.736450 &#xA;&#x9;C420.555084,435.108185 421.283813,435.479919 422.675995,435.995117 &#xA;&#x9;C423.123291,435.946625 423.570618,435.898132 424.943390,435.993042 &#xA;&#x9;C437.178436,435.993042 449.413513,435.993042 461.599518,435.993042 &#xA;&#x9;C461.599518,432.983490 461.599518,430.719055 461.599518,428.115356 &#xA;&#x9;C456.569122,428.115356 451.787018,428.115356 446.246857,427.653625 &#xA;M282.763733,405.551208 &#xA;&#x9;C282.763733,402.452332 282.763733,399.353455 282.763733,395.977783 &#xA;&#x9;C272.637177,395.977783 263.177155,395.953522 253.717377,395.985504 &#xA;&#x9;C246.175369,396.010956 238.885239,401.105957 238.107651,408.641602 &#xA;&#x9;C237.183029,417.602264 237.889999,426.731262 237.889999,435.725769 &#xA;&#x9;C241.256638,435.725769 244.345383,435.725769 247.638809,435.725769 &#xA;&#x9;C247.777725,433.399475 247.900864,431.337372 248.022156,429.306335 &#xA;&#x9;C256.211670,429.306335 263.949860,429.306335 271.747253,429.306335 &#xA;&#x9;C271.945984,431.653839 272.120148,433.710815 272.287811,435.691406 &#xA;&#x9;C275.932831,435.691406 279.167084,435.691406 282.764771,435.691406 &#xA;&#x9;C282.764771,425.760803 282.764771,416.148193 282.763733,405.551208 &#xA;M70.342628,397.508270 &#xA;&#x9;C67.523895,401.045166 62.781639,404.326813 62.271698,408.170013 &#xA;&#x9;C61.070099,417.225952 61.886417,426.549622 61.886417,435.751953 &#xA;&#x9;C64.949203,435.751953 68.036179,435.751953 71.241447,435.751953 &#xA;&#x9;C71.439659,433.430115 71.616165,431.362457 71.781616,429.424408 &#xA;&#x9;C79.999481,429.424408 87.872543,429.424408 95.708214,429.424408 &#xA;&#x9;C95.819977,431.780029 95.911842,433.716248 96.010811,435.802002 &#xA;&#x9;C99.600655,435.802002 102.853622,435.802002 106.354881,435.802002 &#xA;&#x9;C106.354881,422.537109 106.354881,409.486176 106.354881,395.980957 &#xA;&#x9;C98.019943,395.980957 89.913933,395.867554 81.813614,396.032867 &#xA;&#x9;C78.216667,396.106232 74.631195,396.742371 70.342628,397.508270 &#xA;M209.951904,404.817078 &#xA;&#x9;C207.469040,400.448975 204.123154,396.465546 199.009933,396.225037 &#xA;&#x9;C188.278305,395.720276 177.506393,396.071808 166.667206,396.071808 &#xA;&#x9;C166.667206,409.630066 166.667206,422.683533 166.667206,435.782745 &#xA;&#x9;C170.267883,435.782745 173.546829,435.782745 177.032883,435.782745 &#xA;&#x9;C177.170975,433.486877 177.295563,431.415436 177.438950,429.031311 &#xA;&#x9;C181.563080,429.031311 185.373932,428.854462 189.153427,429.121490 &#xA;&#x9;C190.593964,429.223236 192.657990,429.966705 193.250137,431.060638 &#xA;&#x9;C196.855270,437.721069 202.541702,436.142517 208.608582,435.674164 &#xA;&#x9;C206.425095,432.850098 204.624603,430.521393 202.680389,428.006805 &#xA;&#x9;C210.695801,422.211578 214.266235,415.084534 209.951904,404.817078 &#xA;M133.490997,395.985565 &#xA;&#x9;C127.057816,395.985565 120.624634,395.985565 114.077042,395.985565 &#xA;&#x9;C114.077042,409.532196 114.077042,422.573914 114.077042,435.804779 &#xA;&#x9;C117.563332,435.804779 120.810173,435.804779 124.285957,435.804779 &#xA;&#x9;C124.472214,433.534760 124.643257,431.450073 124.842201,429.025360 &#xA;&#x9;C128.822678,429.025360 132.642838,428.803070 136.415024,429.131714 &#xA;&#x9;C137.984604,429.268433 139.840683,430.233185 140.897675,431.418030 &#xA;&#x9;C145.275787,436.325958 148.565353,437.304016 155.410080,435.112915 &#xA;&#x9;C153.581436,432.760132 151.775970,430.437164 149.851578,427.961182 &#xA;&#x9;C150.586075,427.365082 151.066986,426.957733 151.565308,426.572876 &#xA;&#x9;C158.283127,421.385040 160.637054,414.547211 158.195297,407.301453 &#xA;&#x9;C155.613770,399.640961 150.214371,395.988312 141.467529,395.985718 &#xA;&#x9;C139.140106,395.985046 136.812683,395.985596 133.490997,395.985565 &#xA;M301.610107,422.353943 &#xA;&#x9;C298.580536,408.091278 303.309601,403.260468 315.981018,403.945984 &#xA;&#x9;C322.901978,404.320435 329.859863,404.012848 336.776550,404.012848 &#xA;&#x9;C336.776550,401.038635 336.776550,398.658051 336.776550,396.008514 &#xA;&#x9;C326.303802,396.008514 316.164215,395.746155 306.045624,396.094208 &#xA;&#x9;C298.400726,396.357239 292.341461,401.608398 291.100311,409.128967 &#xA;&#x9;C290.358643,413.622955 290.357117,418.432098 291.076935,422.930969 &#xA;&#x9;C292.284668,430.479401 297.793823,435.527130 305.460480,435.858246 &#xA;&#x9;C315.910919,436.309601 326.395447,435.970795 337.073181,435.970795 &#xA;&#x9;C337.073181,427.767242 337.073181,419.860474 337.073181,411.782532 &#xA;&#x9;C333.570496,411.782532 330.364227,411.782532 326.751099,411.782532 &#xA;&#x9;C326.751099,417.277527 326.751099,422.379547 326.751099,427.831116 &#xA;&#x9;C320.577942,427.831116 314.748749,428.298035 309.056671,427.617584 &#xA;&#x9;C306.529144,427.315460 304.278564,424.696777 301.610107,422.353943 &#xA;M350.560181,433.102234 &#xA;&#x9;C352.831635,434.049500 355.079712,435.742493 357.378571,435.814453 &#xA;&#x9;C367.133881,436.119751 376.904236,435.944061 386.710388,435.944061 &#xA;&#x9;C386.710388,433.075104 386.710388,430.689484 386.710388,427.982910 &#xA;&#x9;C378.952545,427.982910 371.490295,428.074341 364.031525,427.953125 &#xA;&#x9;C358.382690,427.861267 356.416107,426.016968 355.426086,419.970490 &#xA;&#x9;C363.881287,419.970490 372.260376,419.970490 380.636261,419.970490 &#xA;&#x9;C380.636261,417.027863 380.636261,414.653168 380.636261,411.906555 &#xA;&#x9;C372.039642,411.906555 363.792877,411.906555 355.508362,411.906555 &#xA;&#x9;C356.278625,405.846069 358.248566,404.103790 364.448273,404.032684 &#xA;&#x9;C371.878754,403.947510 379.310913,404.012604 386.676941,404.012604 &#xA;&#x9;C386.676941,401.014374 386.676941,398.632660 386.676941,395.992828 &#xA;&#x9;C376.881866,395.992828 367.376495,395.484711 357.976562,396.258392 &#xA;&#x9;C354.516724,396.543152 350.398926,399.127533 348.156586,401.925537 &#xA;&#x9;C342.120483,409.457275 343.472748,425.302734 350.560181,433.102234 &#xA;M17.968292,398.239441 &#xA;&#x9;C9.107859,403.437134 9.285880,424.760468 15.034430,430.777557 &#xA;&#x9;C17.293407,433.141968 20.775537,435.516327 23.840742,435.714050 &#xA;&#x9;C33.573421,436.341827 43.372105,435.946289 53.262936,435.946289 &#xA;&#x9;C53.262936,433.073151 53.262936,430.664307 53.262936,427.980835 &#xA;&#x9;C45.977474,427.980835 38.995438,428.006958 32.013680,427.973877 &#xA;&#x9;C24.153633,427.936646 21.832838,425.635925 21.813381,417.971161 &#xA;&#x9;C21.812958,417.804535 21.813791,417.637939 21.813688,417.471313 &#xA;&#x9;C21.806097,405.200684 22.965687,404.023956 35.092785,404.015930 &#xA;&#x9;C41.171787,404.011932 47.250797,404.015259 53.334335,404.015259 &#xA;&#x9;C53.334335,400.999725 53.334335,398.723663 53.334335,395.981934 &#xA;&#x9;C44.321606,395.981934 35.533749,395.836212 26.755899,396.068604 &#xA;&#x9;C24.037830,396.140594 21.346972,397.240417 17.968292,398.239441 &#xA;M471.781738,404.016083 &#xA;&#x9;C476.048615,404.016083 480.315491,404.016083 485.033203,404.016083 &#xA;&#x9;C485.033203,414.977966 485.033203,425.359009 485.033203,435.699768 &#xA;&#x9;C488.741699,435.699768 491.969910,435.699768 495.706207,435.699768 &#xA;&#x9;C495.706207,425.021820 495.706207,414.655365 495.706207,403.943970 &#xA;&#x9;C501.154572,403.943970 506.088715,403.943970 511.230896,403.943970 &#xA;&#x9;C511.230896,401.172363 511.230896,398.764252 511.230896,396.322479 &#xA;&#x9;C497.088928,396.322479 483.222382,396.322479 468.191498,396.322479 &#xA;&#x9;C469.213013,399.273560 470.031616,401.638458 471.781738,404.016083 &#xA;M219.255402,400.715088 &#xA;&#x9;C219.255402,412.415771 219.255402,424.116455 219.255402,435.719452 &#xA;&#x9;C223.279617,435.719452 226.524338,435.719452 229.780060,435.719452 &#xA;&#x9;C229.780060,422.385498 229.780060,409.359283 229.780060,395.971527 &#xA;&#x9;C227.223877,395.971527 224.910263,396.160339 222.640411,395.925781 &#xA;&#x9;C219.501846,395.601440 218.954422,397.232605 219.255402,400.715088 &#xA;z"/>
  <path fill="#445588" stroke="none" d="&#xA;M526.000000,67.531342 &#xA;&#x9;C351.312439,67.998817 176.624878,67.997643 1.468655,67.998230 &#xA;&#x9;C1.000000,45.681499 1.000000,23.362997 1.000003,1.048876 &#xA;&#x9;C176.000000,1.053256 351.000000,1.053256 526.000000,1.053256 &#xA;&#x9;C526.000000,23.091902 526.000000,45.077293 526.000000,67.531342 &#xA;z"/>
  <path fill="#445588" stroke="none" d="&#xA;M1.000000,459.468658 &#xA;&#x9;C175.687561,459.001160 350.375122,459.002319 525.531372,459.001740 &#xA;&#x9;C526.000000,481.318512 526.000000,503.636993 526.000000,525.951050 &#xA;&#x9;C351.000000,525.946655 175.999985,525.946655 1.000000,525.946655 &#xA;&#x9;C1.000000,503.908020 1.000000,481.922668 1.000000,459.468658 &#xA;z"/>
  <path fill="#192A5B" stroke="none" d="&#xA;M124.016052,164.958618 &#xA;&#x9;C120.217606,168.609085 115.777489,170.821274 110.461975,169.664963 &#xA;&#x9;C105.227287,168.526245 101.387924,165.348740 100.222931,159.905914 &#xA;&#x9;C99.145760,154.873428 100.993546,150.738403 105.148018,147.697586 &#xA;&#x9;C109.635086,144.413330 115.972076,143.716003 120.106987,146.923264 &#xA;&#x9;C123.456398,149.521255 126.877533,149.874588 130.779510,149.866974 &#xA;&#x9;C165.761948,149.798721 200.744644,149.848755 235.727081,149.778976 &#xA;&#x9;C237.981781,149.774475 240.931503,149.807907 242.319534,148.504700 &#xA;&#x9;C244.219864,146.720474 246.170456,143.474243 245.809998,141.220856 &#xA;&#x9;C245.444443,138.935638 242.513794,136.786530 240.270615,135.190567 &#xA;&#x9;C239.133667,134.381653 237.035904,134.864059 235.372467,134.863159 &#xA;&#x9;C211.884216,134.850327 188.395737,134.809509 164.908173,134.937134 &#xA;&#x9;C162.933792,134.947861 160.738678,135.755157 159.038864,136.819580 &#xA;&#x9;C154.598846,139.599976 149.953384,140.310547 145.227249,138.316681 &#xA;&#x9;C140.463623,136.306976 137.469498,132.617111 137.336136,127.174469 &#xA;&#x9;C137.207062,121.907013 139.955978,118.280197 144.469940,116.093254 &#xA;&#x9;C149.080322,113.859596 153.678696,114.036446 158.269836,116.720848 &#xA;&#x9;C160.509293,118.030243 163.199707,119.318352 165.692703,119.331352 &#xA;&#x9;C201.840363,119.519928 237.989166,119.498642 274.137695,119.500626 &#xA;&#x9;C277.922455,119.500832 281.773438,119.691048 284.319794,115.905685 &#xA;&#x9;C287.693695,110.890114 284.972198,104.689095 278.948334,104.000137 &#xA;&#x9;C277.300354,103.811661 275.621429,103.856316 273.956726,103.856293 &#xA;&#x9;C217.984604,103.855713 162.012360,103.824432 106.040642,103.977745 &#xA;&#x9;C103.140320,103.985687 99.993538,105.117058 97.396126,106.526398 &#xA;&#x9;C91.084938,109.950790 83.455742,108.958488 79.322380,103.678215 &#xA;&#x9;C75.508446,98.806000 75.913536,92.066200 80.279953,87.746613 &#xA;&#x9;C85.130432,82.948143 92.842773,82.626312 98.552238,86.809715 &#xA;&#x9;C99.923218,87.814247 101.681953,88.289551 103.957405,89.345734 &#xA;&#x9;C105.635971,89.789612 106.619492,89.988930 107.603035,89.989136 &#xA;&#x9;C183.304321,90.004654 259.005615,90.008987 334.706879,89.971756 &#xA;&#x9;C336.132843,89.971054 337.558563,89.463844 338.984375,89.192963 &#xA;&#x9;C403.947388,89.717987 466.596252,135.174393 474.910248,206.162231 &#xA;&#x9;C473.081879,206.162231 471.325378,206.162140 469.568909,206.162247 &#xA;&#x9;C440.236023,206.164200 410.902802,206.098648 381.570679,206.248978 &#xA;&#x9;C377.668854,206.268982 375.516144,205.293732 373.531830,201.601852 &#xA;&#x9;C364.966034,185.664688 347.699127,177.981552 328.582825,181.019287 &#xA;&#x9;C312.469971,183.579742 298.792969,196.907440 295.602844,213.156952 &#xA;&#x9;C291.531036,233.897476 309.089355,255.931625 331.260620,257.904388 &#xA;&#x9;C351.864136,259.737610 366.346100,251.404343 375.193817,232.894333 &#xA;&#x9;C375.854889,231.511261 377.976807,229.956543 379.427460,229.948776 &#xA;&#x9;C410.592712,229.781876 441.759094,229.822281 472.925262,229.842484 &#xA;&#x9;C473.558777,229.842896 474.192169,230.080521 474.810364,230.204437 &#xA;&#x9;C470.743683,280.238708 430.345642,329.061005 370.181213,342.823334 &#xA;&#x9;C366.946075,342.667236 364.339203,342.635223 361.798492,343.029663 &#xA;&#x9;C356.183167,343.901428 350.601135,344.987762 344.536499,345.988617 &#xA;&#x9;C284.973999,345.992126 225.880524,345.985779 166.787064,346.030182 &#xA;&#x9;C164.865204,346.031616 162.943756,346.550873 161.022110,346.828735 &#xA;&#x9;C159.069214,347.981262 157.100021,349.107178 155.166580,350.291412 &#xA;&#x9;C149.928055,353.500061 142.028809,351.854492 138.096512,346.712372 &#xA;&#x9;C134.260254,341.695831 134.957962,335.035309 139.803009,330.569153 &#xA;&#x9;C140.289932,330.120361 140.851822,329.752899 141.994812,329.516174 &#xA;&#x9;C147.688324,329.900818 153.006897,328.832062 157.466949,332.440216 &#xA;&#x9;C157.482040,332.452454 157.878540,331.993256 158.096909,331.754211 &#xA;&#x9;C158.835159,331.822144 159.573425,331.890106 160.988251,332.320465 &#xA;&#x9;C163.476440,332.788208 165.288010,332.984253 167.099670,332.985291 &#xA;&#x9;C199.303452,333.003876 231.507309,332.967072 263.710938,333.039703 &#xA;&#x9;C267.652313,333.048584 271.591339,333.805725 275.533722,333.828644 &#xA;&#x9;C277.021973,333.837341 278.516571,332.747559 280.008270,332.158508 &#xA;&#x9;C281.448914,331.783752 283.444214,331.871704 284.219727,330.942108 &#xA;&#x9;C286.079865,328.712280 288.394440,326.098846 288.636292,323.466644 &#xA;&#x9;C288.970367,319.830566 285.982574,317.581879 282.287292,317.026367 &#xA;&#x9;C280.652496,316.780640 278.963104,316.858154 277.298431,316.857300 &#xA;&#x9;C249.139404,316.842743 220.980026,316.778412 192.821884,316.933624 &#xA;&#x9;C190.219406,316.947968 187.403183,317.967804 185.074615,319.234650 &#xA;&#x9;C180.822449,321.548004 176.531509,322.152863 172.134247,320.401550 &#xA;&#x9;C167.504837,318.557770 164.481613,315.150055 164.021225,309.945923 &#xA;&#x9;C163.557053,304.698730 165.964096,300.892029 170.399231,298.457001 &#xA;&#x9;C175.083160,295.885345 179.788834,295.969299 184.666763,298.532166 &#xA;&#x9;C187.439148,299.988770 190.680954,301.293121 193.735092,301.348083 &#xA;&#x9;C209.725632,301.635681 225.723770,301.509521 241.719269,301.501099 &#xA;&#x9;C243.213654,301.500305 244.740997,301.480469 246.195801,301.186279 &#xA;&#x9;C249.921524,300.432953 252.106506,298.017303 252.246231,294.264740 &#xA;&#x9;C252.383774,290.571106 250.591660,287.794159 246.879669,286.813751 &#xA;&#x9;C244.980591,286.312164 242.936172,286.189087 240.957184,286.187256 &#xA;&#x9;C204.800323,286.153931 168.643250,286.125122 132.486862,286.261658 &#xA;&#x9;C130.215714,286.270233 127.749031,287.295013 125.723434,288.457245 &#xA;&#x9;C121.618935,290.812225 117.486656,292.054565 112.897102,290.342896 &#xA;&#x9;C105.664482,287.645447 102.292404,280.290802 105.263832,273.875610 &#xA;&#x9;C108.380737,267.146332 117.426529,264.213776 124.014023,267.874023 &#xA;&#x9;C125.306122,268.591980 126.401634,269.663727 127.895027,271.248077 &#xA;&#x9;C129.896484,272.282959 131.588806,272.942810 133.285263,272.953552 &#xA;&#x9;C146.769913,273.039001 160.255966,272.919769 173.740402,273.021454 &#xA;&#x9;C191.358093,273.154327 208.974869,273.418579 226.591614,273.658051 &#xA;&#x9;C230.391464,273.709717 232.296585,271.448242 232.033829,267.012360 &#xA;&#x9;C232.111847,265.292603 232.189865,263.572815 232.594208,261.351990 &#xA;&#x9;C232.240707,259.901001 231.560883,258.951080 230.881073,258.001129 &#xA;&#x9;C229.734879,257.511230 228.588699,257.021301 226.937836,255.991211 &#xA;&#x9;C224.627472,255.299667 222.821823,255.017380 221.016022,255.016220 &#xA;&#x9;C181.526764,254.990982 142.037460,255.018021 102.548271,254.958481 &#xA;&#x9;C99.257286,254.953522 95.959999,254.129318 92.679314,254.214188 &#xA;&#x9;C90.774956,254.263428 88.897888,255.367355 87.008545,255.996674 &#xA;&#x9;C79.056725,263.040192 71.493942,262.638245 64.989372,254.037506 &#xA;&#x9;C64.581093,250.805771 64.181564,248.363464 63.782032,245.921143 &#xA;&#x9;C63.795208,245.474304 63.808380,245.027451 64.185471,244.140930 &#xA;&#x9;C64.780289,243.443726 64.888100,243.142166 64.872810,242.796570 &#xA;&#x9;C64.872810,242.796570 64.902679,242.888062 65.222015,242.889526 &#xA;&#x9;C69.698196,240.670502 73.855049,238.450043 78.011902,236.229584 &#xA;&#x9;C78.844460,236.352081 79.677017,236.474564 80.815964,237.165771 &#xA;&#x9;C82.155922,238.093842 83.189507,238.453171 84.223083,238.812485 &#xA;&#x9;C84.223083,238.812485 84.099945,238.891647 84.146561,239.224777 &#xA;&#x9;C85.042236,239.949661 85.891281,240.341431 86.740334,240.733185 &#xA;&#x9;C86.740334,240.733185 86.890427,240.713531 87.004471,241.143143 &#xA;&#x9;C90.740654,241.401260 94.362793,241.229767 97.984940,241.058273 &#xA;&#x9;C107.354462,240.995163 116.723991,240.932037 126.856026,241.248337 &#xA;&#x9;C134.074463,241.437347 140.530396,241.246918 146.986328,241.056488 &#xA;&#x9;C167.352310,240.993225 187.718292,240.929962 208.568268,241.233002 &#xA;&#x9;C211.543701,241.768127 214.035141,241.936935 216.928452,242.132980 &#xA;&#x9;C216.928452,239.549316 216.928452,237.762970 216.928467,235.976624 &#xA;&#x9;C216.973602,235.520676 217.018738,235.064713 217.534882,234.214722 &#xA;&#x9;C218.535355,231.410812 219.253922,228.915604 215.563461,228.411041 &#xA;&#x9;C215.675522,228.272171 215.787567,228.133286 215.828278,227.838989 &#xA;&#x9;C214.828293,227.127258 213.899612,226.570953 212.970947,226.014664 &#xA;&#x9;C212.557419,225.389374 212.143890,224.764099 211.121368,224.105286 &#xA;&#x9;C210.001846,224.617813 209.491333,225.163895 208.980804,225.709991 &#xA;&#x9;C190.299789,225.743652 171.618774,225.777328 152.428802,225.458435 &#xA;&#x9;C151.272964,225.279663 150.626053,225.453445 149.979156,225.627228 &#xA;&#x9;C149.543045,225.694138 149.106934,225.761032 148.380219,225.465607 &#xA;&#x9;C148.048965,224.516891 148.146362,223.474579 147.946503,223.414078 &#xA;&#x9;C145.734161,222.744263 143.475739,222.226761 141.278534,221.445969 &#xA;&#x9;C141.327316,221.223862 141.699066,220.961899 142.075073,220.932663 &#xA;&#x9;C144.667419,218.843887 146.261597,216.886551 142.923904,214.269897 &#xA;&#x9;C139.512939,211.595840 136.154343,211.691269 132.990753,214.981033 &#xA;&#x9;C132.997025,214.998032 132.962738,214.983459 132.588226,214.992584 &#xA;&#x9;C130.473190,217.231766 128.732635,219.461807 126.910164,221.796814 &#xA;&#x9;C123.320679,218.345108 125.892342,214.790558 127.468010,212.572113 &#xA;&#x9;C130.505249,208.295868 139.358871,207.165192 143.674850,210.241211 &#xA;&#x9;C145.271011,211.378815 147.631668,211.899048 149.650330,211.916199 &#xA;&#x9;C165.303116,212.049286 180.957550,211.990845 196.611465,211.990631 &#xA;&#x9;C202.773102,211.990555 208.998901,212.515045 215.070831,211.776276 &#xA;&#x9;C218.383667,211.373215 221.689636,209.152145 224.423065,207.014832 &#xA;&#x9;C225.087936,206.494934 223.483261,203.072571 222.922134,200.984772 &#xA;&#x9;C220.810852,199.139725 218.699570,197.294678 216.226532,194.887665 &#xA;&#x9;C212.256775,193.217148 208.654221,191.165588 205.039886,191.144653 &#xA;&#x9;C165.274643,190.914276 125.507515,190.970718 85.741081,191.047394 &#xA;&#x9;C81.958138,191.054688 78.133743,191.501343 74.417953,192.211563 &#xA;&#x9;C73.158440,192.452271 72.174789,194.136322 71.065086,195.160797 &#xA;&#x9;C64.354851,201.409714 56.277863,201.806564 50.636868,196.164505 &#xA;&#x9;C46.446007,191.972855 46.096920,184.667572 49.875446,180.230804 &#xA;&#x9;C54.396004,174.922760 62.193001,173.889603 67.997452,177.307114 &#xA;&#x9;C70.520287,178.792480 73.655838,180.019714 76.517822,180.029846 &#xA;&#x9;C123.809906,180.197281 171.102737,180.152130 218.395401,180.153793 &#xA;&#x9;C219.727524,180.153839 221.260239,180.571198 222.352631,180.057068 &#xA;&#x9;C225.175598,178.728531 228.950531,177.575760 230.156204,175.228424 &#xA;&#x9;C231.163132,173.268005 229.070648,169.715622 228.130737,166.170868 &#xA;&#x9;C225.583817,164.649582 223.260849,163.121689 220.929428,163.108719 &#xA;&#x9;C191.637283,162.945816 162.343658,162.945038 133.051300,163.087448 &#xA;&#x9;C130.036591,163.102112 127.027664,164.306366 124.016052,164.958618 &#xA;M79.962418,253.437286 &#xA;&#x9;C82.697701,249.599152 81.920700,245.624237 78.038292,245.138138 &#xA;&#x9;C76.225044,244.911118 73.649796,245.788010 72.467751,247.105011 &#xA;&#x9;C71.550598,248.126877 71.586258,251.747711 72.378319,252.215500 &#xA;&#x9;C74.337730,253.372772 76.974220,253.383636 79.962418,253.437286 &#xA;M85.837303,93.125946 &#xA;&#x9;C83.546402,96.828018 84.591423,99.778984 88.577888,100.731636 &#xA;&#x9;C90.293587,101.141647 93.090652,99.806084 94.350922,98.355316 &#xA;&#x9;C95.177055,97.404312 94.757385,94.348801 93.790131,93.075920 &#xA;&#x9;C91.802589,90.460335 88.949989,90.692062 85.837303,93.125946 &#xA;M60.472816,193.171036 &#xA;&#x9;C63.830666,193.049927 66.154655,191.263672 65.475967,187.996445 &#xA;&#x9;C65.113991,186.253830 62.579754,183.775986 61.020603,183.772095 &#xA;&#x9;C59.117813,183.767365 56.220795,185.618011 55.522690,187.370773 &#xA;&#x9;C54.312805,190.408569 56.205769,192.694626 60.472816,193.171036 &#xA;M153.992905,123.479622 &#xA;&#x9;C151.047836,121.408379 148.066971,121.641373 146.336182,124.658234 &#xA;&#x9;C145.554504,126.020737 145.994461,129.537964 147.033173,130.163696 &#xA;&#x9;C148.761841,131.205078 151.772263,131.493912 153.604919,130.673843 &#xA;&#x9;C156.549637,129.356140 156.484940,126.576393 153.992905,123.479622 &#xA;M181.342896,314.188538 &#xA;&#x9;C181.222595,312.095612 181.656403,309.717682 180.780014,308.013611 &#xA;&#x9;C180.229553,306.943298 177.486450,306.148193 176.136948,306.563019 &#xA;&#x9;C174.549164,307.051086 172.735153,308.785675 172.277405,310.348297 &#xA;&#x9;C171.902512,311.628082 173.042679,314.471741 174.094498,314.810364 &#xA;&#x9;C176.126678,315.464661 178.570328,314.840942 181.342896,314.188538 &#xA;M154.272247,342.982941 &#xA;&#x9;C154.127533,341.863800 154.299240,340.562561 153.779404,339.659302 &#xA;&#x9;C152.150345,336.828552 149.296417,335.654114 146.755875,337.572021 &#xA;&#x9;C145.272141,338.692139 145.133896,341.594513 144.390305,343.695038 &#xA;&#x9;C146.780731,344.451630 149.136002,345.416595 151.584381,345.829651 &#xA;&#x9;C152.262054,345.943970 153.216568,344.417511 154.272247,342.982941 &#xA;M120.864998,276.688446 &#xA;&#x9;C117.923645,274.876984 114.916145,274.823792 113.252007,277.995728 &#xA;&#x9;C112.511086,279.407959 112.984840,282.900452 114.013504,283.477783 &#xA;&#x9;C115.790482,284.475067 118.813850,284.727966 120.620422,283.855835 &#xA;&#x9;C123.446182,282.491730 123.483521,279.713989 120.864998,276.688446 &#xA;M110.375969,153.573441 &#xA;&#x9;C109.760498,155.593475 108.242699,157.930573 108.806862,159.536133 &#xA;&#x9;C109.282906,160.890930 112.578400,162.496094 113.899513,162.011200 &#xA;&#x9;C115.712494,161.345795 118.071060,158.770828 118.015991,157.085358 &#xA;&#x9;C117.881828,152.979248 114.669899,152.297684 110.375969,153.573441 &#xA;z"/>
  <path fill="#1F2C5C" stroke="none" d="&#xA;M282.764252,406.043396 &#xA;&#x9;C282.764771,416.148193 282.764771,425.760803 282.764771,435.691406 &#xA;&#x9;C279.167084,435.691406 275.932831,435.691406 272.287811,435.691406 &#xA;&#x9;C272.120148,433.710815 271.945984,431.653839 271.747253,429.306335 &#xA;&#x9;C263.949860,429.306335 256.211670,429.306335 248.022156,429.306335 &#xA;&#x9;C247.900864,431.337372 247.777725,433.399475 247.638809,435.725769 &#xA;&#x9;C244.345383,435.725769 241.256638,435.725769 237.889999,435.725769 &#xA;&#x9;C237.889999,426.731262 237.183029,417.602264 238.107651,408.641602 &#xA;&#x9;C238.885239,401.105957 246.175369,396.010956 253.717377,395.985504 &#xA;&#x9;C263.177155,395.953522 272.637177,395.977783 282.763733,395.977783 &#xA;&#x9;C282.763733,399.353455 282.763733,402.452332 282.764252,406.043396 &#xA;M267.367371,404.007965 &#xA;&#x9;C265.373322,404.006592 263.365479,404.157379 261.387512,403.978363 &#xA;&#x9;C250.907990,403.030029 245.613739,408.781067 248.473694,420.662720 &#xA;&#x9;C256.205658,420.662720 263.930298,420.662720 272.009430,420.662720 &#xA;&#x9;C272.009430,415.885956 271.840393,411.419647 272.067261,406.973572 &#xA;&#x9;C272.225555,403.871338 270.459137,403.866821 267.367371,404.007965 &#xA;z"/>
  <path fill="#202D5D" stroke="none" d="&#xA;M70.691574,397.315674 &#xA;&#x9;C74.631195,396.742371 78.216667,396.106232 81.813614,396.032867 &#xA;&#x9;C89.913933,395.867554 98.019943,395.980957 106.354881,395.980957 &#xA;&#x9;C106.354881,409.486176 106.354881,422.537109 106.354881,435.802002 &#xA;&#x9;C102.853622,435.802002 99.600655,435.802002 96.010811,435.802002 &#xA;&#x9;C95.911842,433.716248 95.819977,431.780029 95.708214,429.424408 &#xA;&#x9;C87.872543,429.424408 79.999481,429.424408 71.781616,429.424408 &#xA;&#x9;C71.616165,431.362457 71.439659,433.430115 71.241447,435.751953 &#xA;&#x9;C68.036179,435.751953 64.949203,435.751953 61.886417,435.751953 &#xA;&#x9;C61.886417,426.549622 61.070099,417.225952 62.271698,408.170013 &#xA;&#x9;C62.781639,404.326813 67.523895,401.045166 70.691574,397.315674 &#xA;M86.461693,420.991608 &#xA;&#x9;C89.530762,420.991608 92.599831,420.991608 95.649979,420.991608 &#xA;&#x9;C95.649979,414.982147 95.649979,409.737000 95.649979,404.000641 &#xA;&#x9;C92.006317,404.000641 88.537094,404.303802 85.138458,403.942719 &#xA;&#x9;C75.671661,402.936951 69.055885,408.132690 72.161858,420.990997 &#xA;&#x9;C76.556175,420.990997 81.018356,420.990997 86.461693,420.991608 &#xA;z"/>
  <path fill="#202E5E" stroke="none" d="&#xA;M210.097336,405.172852 &#xA;&#x9;C214.266235,415.084534 210.695801,422.211578 202.680389,428.006805 &#xA;&#x9;C204.624603,430.521393 206.425095,432.850098 208.608582,435.674164 &#xA;&#x9;C202.541702,436.142517 196.855270,437.721069 193.250137,431.060638 &#xA;&#x9;C192.657990,429.966705 190.593964,429.223236 189.153427,429.121490 &#xA;&#x9;C185.373932,428.854462 181.563080,429.031311 177.438950,429.031311 &#xA;&#x9;C177.295563,431.415436 177.170975,433.486877 177.032883,435.782745 &#xA;&#x9;C173.546829,435.782745 170.267883,435.782745 166.667206,435.782745 &#xA;&#x9;C166.667206,422.683533 166.667206,409.630066 166.667206,396.071808 &#xA;&#x9;C177.506393,396.071808 188.278305,395.720276 199.009933,396.225037 &#xA;&#x9;C204.123154,396.465546 207.469040,400.448975 210.097336,405.172852 &#xA;M200.497070,410.248138 &#xA;&#x9;C198.153732,408.194641 196.049255,404.850098 193.416138,404.363007 &#xA;&#x9;C188.321198,403.420410 182.928467,404.087585 177.464539,404.087585 &#xA;&#x9;C177.464539,409.875549 177.464539,415.249084 177.464539,420.630707 &#xA;&#x9;C178.201645,420.781189 178.674210,420.958710 179.147873,420.961639 &#xA;&#x9;C183.301208,420.987396 187.455856,421.044403 191.607986,420.971771 &#xA;&#x9;C198.532227,420.850647 200.910248,418.204071 200.497070,410.248138 &#xA;z"/>
  <path fill="#1E2C5C" stroke="none" d="&#xA;M133.988129,395.985596 &#xA;&#x9;C136.812683,395.985596 139.140106,395.985046 141.467529,395.985718 &#xA;&#x9;C150.214371,395.988312 155.613770,399.640961 158.195297,407.301453 &#xA;&#x9;C160.637054,414.547211 158.283127,421.385040 151.565308,426.572876 &#xA;&#x9;C151.066986,426.957733 150.586075,427.365082 149.851578,427.961182 &#xA;&#x9;C151.775970,430.437164 153.581436,432.760132 155.410080,435.112915 &#xA;&#x9;C148.565353,437.304016 145.275787,436.325958 140.897675,431.418030 &#xA;&#x9;C139.840683,430.233185 137.984604,429.268433 136.415024,429.131714 &#xA;&#x9;C132.642838,428.803070 128.822678,429.025360 124.842201,429.025360 &#xA;&#x9;C124.643257,431.450073 124.472214,433.534760 124.285957,435.804779 &#xA;&#x9;C120.810173,435.804779 117.563332,435.804779 114.077042,435.804779 &#xA;&#x9;C114.077042,422.573914 114.077042,409.532196 114.077042,395.985565 &#xA;&#x9;C120.624634,395.985565 127.057816,395.985565 133.988129,395.985596 &#xA;M145.487976,419.146362 &#xA;&#x9;C150.368683,412.526001 147.990921,404.933350 140.501358,404.170380 &#xA;&#x9;C135.305252,403.641052 130.011673,404.068542 124.713570,404.068542 &#xA;&#x9;C124.713570,409.884003 124.713570,415.160583 124.713570,421.529480 &#xA;&#x9;C131.558792,420.902039 138.211411,420.292267 145.487976,419.146362 &#xA;z"/>
  <path fill="#1F2C5C" stroke="none" d="&#xA;M301.756165,422.741760 &#xA;&#x9;C304.278564,424.696777 306.529144,427.315460 309.056671,427.617584 &#xA;&#x9;C314.748749,428.298035 320.577942,427.831116 326.751099,427.831116 &#xA;&#x9;C326.751099,422.379547 326.751099,417.277527 326.751099,411.782532 &#xA;&#x9;C330.364227,411.782532 333.570496,411.782532 337.073181,411.782532 &#xA;&#x9;C337.073181,419.860474 337.073181,427.767242 337.073181,435.970795 &#xA;&#x9;C326.395447,435.970795 315.910919,436.309601 305.460480,435.858246 &#xA;&#x9;C297.793823,435.527130 292.284668,430.479401 291.076935,422.930969 &#xA;&#x9;C290.357117,418.432098 290.358643,413.622955 291.100311,409.128967 &#xA;&#x9;C292.341461,401.608398 298.400726,396.357239 306.045624,396.094208 &#xA;&#x9;C316.164215,395.746155 326.303802,396.008514 336.776550,396.008514 &#xA;&#x9;C336.776550,398.658051 336.776550,401.038635 336.776550,404.012848 &#xA;&#x9;C329.859863,404.012848 322.901978,404.320435 315.981018,403.945984 &#xA;&#x9;C303.309601,403.260468 298.580536,408.091278 301.756165,422.741760 &#xA;z"/>
  <path fill="#1D2B5A" stroke="none" d="&#xA;M350.275696,432.858002 &#xA;&#x9;C343.472748,425.302734 342.120483,409.457275 348.156586,401.925537 &#xA;&#x9;C350.398926,399.127533 354.516724,396.543152 357.976562,396.258392 &#xA;&#x9;C367.376495,395.484711 376.881866,395.992828 386.676941,395.992828 &#xA;&#x9;C386.676941,398.632660 386.676941,401.014374 386.676941,404.012604 &#xA;&#x9;C379.310913,404.012604 371.878754,403.947510 364.448273,404.032684 &#xA;&#x9;C358.248566,404.103790 356.278625,405.846069 355.508362,411.906555 &#xA;&#x9;C363.792877,411.906555 372.039642,411.906555 380.636261,411.906555 &#xA;&#x9;C380.636261,414.653168 380.636261,417.027863 380.636261,419.970490 &#xA;&#x9;C372.260376,419.970490 363.881287,419.970490 355.426086,419.970490 &#xA;&#x9;C356.416107,426.016968 358.382690,427.861267 364.031525,427.953125 &#xA;&#x9;C371.490295,428.074341 378.952545,427.982910 386.710388,427.982910 &#xA;&#x9;C386.710388,430.689484 386.710388,433.075104 386.710388,435.944061 &#xA;&#x9;C376.904236,435.944061 367.133881,436.119751 357.378571,435.814453 &#xA;&#x9;C355.079712,435.742493 352.831635,434.049500 350.275696,432.858002 &#xA;z"/>
  <path fill="#1F2D5C" stroke="none" d="&#xA;M18.305973,398.054565 &#xA;&#x9;C21.346972,397.240417 24.037830,396.140594 26.755899,396.068604 &#xA;&#x9;C35.533749,395.836212 44.321606,395.981934 53.334335,395.981934 &#xA;&#x9;C53.334335,398.723663 53.334335,400.999725 53.334335,404.015259 &#xA;&#x9;C47.250797,404.015259 41.171787,404.011932 35.092785,404.015930 &#xA;&#x9;C22.965687,404.023956 21.806097,405.200684 21.813688,417.471313 &#xA;&#x9;C21.813791,417.637939 21.812958,417.804535 21.813381,417.971161 &#xA;&#x9;C21.832838,425.635925 24.153633,427.936646 32.013680,427.973877 &#xA;&#x9;C38.995438,428.006958 45.977474,427.980835 53.262936,427.980835 &#xA;&#x9;C53.262936,430.664307 53.262936,433.073151 53.262936,435.946289 &#xA;&#x9;C43.372105,435.946289 33.573421,436.341827 23.840742,435.714050 &#xA;&#x9;C20.775537,435.516327 17.293407,433.141968 15.034430,430.777557 &#xA;&#x9;C9.285880,424.760468 9.107859,403.437134 18.305973,398.054565 &#xA;z"/>
  <path fill="#1E2C5D" stroke="none" d="&#xA;M431.987305,428.147034 &#xA;&#x9;C434.446594,428.273804 435.414062,427.302979 435.338409,424.663330 &#xA;&#x9;C435.148224,418.028473 435.275482,411.384521 435.275482,404.256287 &#xA;&#x9;C430.236908,404.256287 425.339569,404.256287 420.117615,404.256287 &#xA;&#x9;C420.117615,401.394135 420.117615,398.996552 420.117615,396.286743 &#xA;&#x9;C433.677856,396.286743 447.393921,396.286743 461.488708,396.286743 &#xA;&#x9;C461.488708,398.596191 461.488708,400.972717 461.488708,403.914978 &#xA;&#x9;C456.497040,403.914978 451.438385,403.914978 446.246857,403.914978 &#xA;&#x9;C446.246857,412.195374 446.246857,419.924500 446.724121,428.268555 &#xA;&#x9;C450.210846,429.257904 453.266235,429.429993 456.208984,430.098114 &#xA;&#x9;C457.537659,430.399811 458.642120,431.689117 459.848297,432.530334 &#xA;&#x9;C458.621948,433.351959 457.417236,434.843994 456.165710,434.884338 &#xA;&#x9;C449.031830,435.114349 441.885193,434.907990 434.746307,435.037933 &#xA;&#x9;C431.166443,435.103088 427.593811,435.566406 424.017914,435.849670 &#xA;&#x9;C423.570618,435.898132 423.123291,435.946625 422.293457,435.616791 &#xA;&#x9;C421.276337,434.824402 420.641815,434.410370 420.007263,433.996338 &#xA;&#x9;C419.943939,433.240631 419.880585,432.484894 420.296814,431.316650 &#xA;&#x9;C424.513367,429.985077 428.250336,429.066040 431.987305,428.147034 &#xA;z"/>
  <path fill="#202E5E" stroke="none" d="&#xA;M471.315979,404.009705 &#xA;&#x9;C470.031616,401.638458 469.213013,399.273560 468.191498,396.322479 &#xA;&#x9;C483.222382,396.322479 497.088928,396.322479 511.230896,396.322479 &#xA;&#x9;C511.230896,398.764252 511.230896,401.172363 511.230896,403.943970 &#xA;&#x9;C506.088715,403.943970 501.154572,403.943970 495.706207,403.943970 &#xA;&#x9;C495.706207,414.655365 495.706207,425.021820 495.706207,435.699768 &#xA;&#x9;C491.969910,435.699768 488.741699,435.699768 485.033203,435.699768 &#xA;&#x9;C485.033203,425.359009 485.033203,414.977966 485.033203,404.016083 &#xA;&#x9;C480.315491,404.016083 476.048615,404.016083 471.315979,404.009705 &#xA;z"/>
  <path fill="#1A2753" stroke="none" d="&#xA;M71.529053,195.175415 &#xA;&#x9;C72.174789,194.136322 73.158440,192.452271 74.417953,192.211563 &#xA;&#x9;C78.133743,191.501343 81.958138,191.054688 85.741081,191.047394 &#xA;&#x9;C125.507515,190.970718 165.274643,190.914276 205.039886,191.144653 &#xA;&#x9;C208.654221,191.165588 212.256775,193.217148 215.930359,194.704498 &#xA;&#x9;C167.994949,195.118881 119.993980,195.154465 71.529053,195.175415 &#xA;z"/>
  <path fill="#23315F" stroke="none" d="&#xA;M219.257019,400.242554 &#xA;&#x9;C218.954422,397.232605 219.501846,395.601440 222.640411,395.925781 &#xA;&#x9;C224.910263,396.160339 227.223877,395.971527 229.780060,395.971527 &#xA;&#x9;C229.780060,409.359283 229.780060,422.385498 229.780060,435.719452 &#xA;&#x9;C226.524338,435.719452 223.279617,435.719452 219.255402,435.719452 &#xA;&#x9;C219.255402,424.116455 219.255402,412.415771 219.257019,400.242554 &#xA;z"/>
  <path fill="#26355D" stroke="none" d="&#xA;M141.229767,221.668060 &#xA;&#x9;C143.475739,222.226761 145.734161,222.744263 147.946503,223.414078 &#xA;&#x9;C148.146362,223.474579 148.048965,224.516891 148.055115,225.391876 &#xA;&#x9;C146.901825,226.411942 145.783066,227.143417 144.283081,227.612778 &#xA;&#x9;C143.575989,227.051727 143.250122,226.752777 142.924271,226.453812 &#xA;&#x9;C142.615204,227.300095 142.306137,228.146378 141.997086,228.992661 &#xA;&#x9;C135.169693,231.798141 128.542572,230.009140 124.909103,224.379745 &#xA;&#x9;C121.791512,219.549606 122.578934,213.398422 126.835800,209.328766 &#xA;&#x9;C131.681534,204.696152 139.142715,204.356339 144.753159,208.162231 &#xA;&#x9;C146.530731,209.368073 148.876648,210.362946 150.970459,210.378494 &#xA;&#x9;C171.132904,210.528137 191.297104,210.473083 211.460678,210.420822 &#xA;&#x9;C219.581116,210.399780 221.898224,208.569229 222.840302,201.399826 &#xA;&#x9;C223.483261,203.072571 225.087936,206.494934 224.423065,207.014832 &#xA;&#x9;C221.689636,209.152145 218.383667,211.373215 215.070831,211.776276 &#xA;&#x9;C208.998901,212.515045 202.773102,211.990555 196.611465,211.990631 &#xA;&#x9;C180.957550,211.990845 165.303116,212.049286 149.650330,211.916199 &#xA;&#x9;C147.631668,211.899048 145.271011,211.378815 143.674850,210.241211 &#xA;&#x9;C139.358871,207.165192 130.505249,208.295868 127.468010,212.572113 &#xA;&#x9;C125.892342,214.790558 123.320679,218.345108 126.910164,221.796814 &#xA;&#x9;C128.732635,219.461807 130.473190,217.231766 132.455292,215.310120 &#xA;&#x9;C130.778183,218.098541 130.667435,220.606461 133.163528,222.638199 &#xA;&#x9;C136.040665,224.980118 138.741043,223.694000 141.229767,221.668060 &#xA;z"/>
  <path fill="#1C2644" stroke="none" d="&#xA;M338.522400,89.111046 &#xA;&#x9;C337.558563,89.463844 336.132843,89.971054 334.706879,89.971756 &#xA;&#x9;C259.005615,90.008987 183.304321,90.004654 107.603035,89.989136 &#xA;&#x9;C106.619492,89.988930 105.635971,89.789612 104.338425,89.414841 &#xA;&#x9;C104.685951,89.095810 105.347496,89.000786 106.009041,89.000832 &#xA;&#x9;C183.359512,89.005684 260.709991,89.017593 338.522400,89.111046 &#xA;z"/>
  <path fill="#1C2A4D" stroke="none" d="&#xA;M231.761200,267.235535 &#xA;&#x9;C232.296585,271.448242 230.391464,273.709717 226.591614,273.658051 &#xA;&#x9;C208.974869,273.418579 191.358093,273.154327 173.740402,273.021454 &#xA;&#x9;C160.255966,272.919769 146.769913,273.039001 133.285263,272.953552 &#xA;&#x9;C131.588806,272.942810 129.896484,272.282959 128.083588,271.542877 &#xA;&#x9;C159.216553,271.162109 190.469116,271.271484 221.718369,271.000366 &#xA;&#x9;C224.985092,270.972046 228.232300,268.693329 231.761200,267.235535 &#xA;z"/>
  <path fill="#1D2A49" stroke="none" d="&#xA;M124.482666,164.985138 &#xA;&#x9;C127.027664,164.306366 130.036591,163.102112 133.051300,163.087448 &#xA;&#x9;C162.343658,162.945038 191.637283,162.945816 220.929428,163.108719 &#xA;&#x9;C223.260849,163.121689 225.583817,164.649582 227.960693,165.873077 &#xA;&#x9;C225.416855,165.849350 222.823990,165.064346 220.229111,165.057663 &#xA;&#x9;C188.469330,164.976105 156.709274,165.008652 124.482666,164.985138 &#xA;z"/>
  <path fill="#1A2643" stroke="none" d="&#xA;M161.483810,346.906952 &#xA;&#x9;C162.943756,346.550873 164.865204,346.031616 166.787064,346.030182 &#xA;&#x9;C225.880524,345.985779 284.973999,345.992126 344.532440,346.200989 &#xA;&#x9;C344.997375,346.411316 344.987823,346.835663 344.987823,346.835663 &#xA;&#x9;C332.023285,346.890625 319.058777,346.988922 306.094238,346.992798 &#xA;&#x9;C258.044647,347.007111 209.995087,346.990295 161.483810,346.906952 &#xA;z"/>
  <path fill="#1C2A4A" stroke="none" d="&#xA;M87.475945,256.017029 &#xA;&#x9;C88.897888,255.367355 90.774956,254.263428 92.679314,254.214188 &#xA;&#x9;C95.959999,254.129318 99.257286,254.953522 102.548271,254.958481 &#xA;&#x9;C142.037460,255.018021 181.526764,254.990982 221.016022,255.016220 &#xA;&#x9;C222.821823,255.017380 224.627472,255.299667 226.705063,255.770111 &#xA;&#x9;C180.632416,256.071960 134.287872,256.054688 87.475945,256.017029 &#xA;z"/>
  <path fill="#1E284E" stroke="none" d="&#xA;M279.543610,332.085846 &#xA;&#x9;C278.516571,332.747559 277.021973,333.837341 275.533722,333.828644 &#xA;&#x9;C271.591339,333.805725 267.652313,333.048584 263.710938,333.039703 &#xA;&#x9;C231.507309,332.967072 199.303452,333.003876 167.099670,332.985291 &#xA;&#x9;C165.288010,332.984253 163.476440,332.788208 161.346893,332.420898 &#xA;&#x9;C200.378952,332.110352 239.728958,332.061768 279.543610,332.085846 &#xA;z"/>
  <path fill="#222C51" stroke="none" d="&#xA;M424.480652,435.921387 &#xA;&#x9;C427.593811,435.566406 431.166443,435.103088 434.746307,435.037933 &#xA;&#x9;C441.885193,434.907990 449.031830,435.114349 456.165710,434.884338 &#xA;&#x9;C457.417236,434.843994 458.621948,433.351959 459.848297,432.530334 &#xA;&#x9;C458.642120,431.689117 457.537659,430.399811 456.208984,430.098114 &#xA;&#x9;C453.266235,429.429993 450.210846,429.257904 447.103180,428.499451 &#xA;&#x9;C451.787018,428.115356 456.569122,428.115356 461.599518,428.115356 &#xA;&#x9;C461.599518,430.719055 461.599518,432.983490 461.599518,435.993042 &#xA;&#x9;C449.413513,435.993042 437.178436,435.993042 424.480652,435.921387 &#xA;z"/>
  <path fill="#273455" stroke="none" d="&#xA;M345.417297,346.902863 &#xA;&#x9;C344.987823,346.835663 344.997375,346.411316 345.001465,346.198975 &#xA;&#x9;C350.601135,344.987762 356.183167,343.901428 361.798492,343.029663 &#xA;&#x9;C364.339203,342.635223 366.946075,342.667236 369.779358,342.808838 &#xA;&#x9;C361.972778,344.397949 353.909760,345.684021 345.417297,346.902863 &#xA;z"/>
  <path fill="#1E284E" stroke="none" d="&#xA;M157.951538,331.434753 &#xA;&#x9;C157.878540,331.993256 157.482040,332.452454 157.466949,332.440216 &#xA;&#x9;C153.006897,328.832062 147.688324,329.900818 142.325317,329.442566 &#xA;&#x9;C147.761292,325.713898 153.048065,326.355988 157.951538,331.434753 &#xA;z"/>
  <path fill="#202D51" stroke="none" d="&#xA;M77.611366,236.133667 &#xA;&#x9;C73.855049,238.450043 69.698196,240.670502 65.174500,242.881897 &#xA;&#x9;C67.375221,237.751266 71.867401,236.122147 77.611366,236.133667 &#xA;z"/>
  <path fill="#202D51" stroke="none" d="&#xA;M216.662674,236.185699 &#xA;&#x9;C216.928452,237.762970 216.928452,239.549316 216.928452,242.132980 &#xA;&#x9;C214.035141,241.936935 211.543701,241.768127 209.030518,241.319794 &#xA;&#x9;C211.471497,239.491760 213.934189,237.943253 216.662674,236.185699 &#xA;z"/>
  <path fill="#202D51" stroke="none" d="&#xA;M146.527466,240.960938 &#xA;&#x9;C140.530396,241.246918 134.074463,241.437347 127.317596,241.342133 &#xA;&#x9;C133.367310,240.992798 139.717957,240.929092 146.527466,240.960938 &#xA;z"/>
  <path fill="#222C51" stroke="none" d="&#xA;M431.530273,428.075073 &#xA;&#x9;C428.250336,429.066040 424.513367,429.985077 420.395508,430.947449 &#xA;&#x9;C420.754089,429.990814 421.400696,428.232574 422.249939,428.128540 &#xA;&#x9;C425.152618,427.773041 428.126526,427.999023 431.530273,428.075073 &#xA;z"/>
  <path fill="#202D51" stroke="none" d="&#xA;M97.536728,240.963211 &#xA;&#x9;C94.362793,241.229767 90.740654,241.401260 87.064651,241.189026 &#xA;&#x9;C90.370033,240.826248 93.729271,240.847198 97.536728,240.963211 &#xA;z"/>
  <path fill="#202D51" stroke="none" d="&#xA;M63.547192,246.203949 &#xA;&#x9;C64.181564,248.363464 64.581093,250.805771 64.963882,253.694229 &#xA;&#x9;C64.402214,251.589157 63.857285,249.037949 63.547192,246.203949 &#xA;z"/>
  <path fill="#202D51" stroke="none" d="&#xA;M215.676468,228.757370 &#xA;&#x9;C219.253922,228.915604 218.535355,231.410812 217.696152,233.908356 &#xA;&#x9;C216.854111,232.365265 216.321793,230.734482 215.676468,228.757370 &#xA;z"/>
  <path fill="#1C2A4D" stroke="none" d="&#xA;M230.854233,258.344360 &#xA;&#x9;C231.560883,258.951080 232.240707,259.901001 232.628113,260.920654 &#xA;&#x9;C231.832932,260.222748 231.330154,259.455170 230.854233,258.344360 &#xA;z"/>
  <path fill="#192A5B" stroke="none" d="&#xA;M142.291809,228.991547 &#xA;&#x9;C142.306137,228.146378 142.615204,227.300095 142.924271,226.453812 &#xA;&#x9;C143.250122,226.752777 143.575989,227.051727 143.950104,227.662491 &#xA;&#x9;C143.527771,228.313019 143.057159,228.651733 142.291809,228.991547 &#xA;z"/>
  <path fill="#202D51" stroke="none" d="&#xA;M212.999878,226.328186 &#xA;&#x9;C213.899612,226.570953 214.828293,227.127258 215.670380,228.054916 &#xA;&#x9;C214.732132,227.831421 213.880463,227.236557 212.999878,226.328186 &#xA;z"/>
  <path fill="#202D51" stroke="none" d="&#xA;M84.060287,238.531967 &#xA;&#x9;C83.189507,238.453171 82.155922,238.093842 81.057663,237.377625 &#xA;&#x9;C81.961143,237.430984 82.929314,237.841217 84.060287,238.531967 &#xA;z"/>
  <path fill="#26355D" stroke="none" d="&#xA;M150.315048,225.725983 &#xA;&#x9;C150.626053,225.453445 151.272964,225.279663 151.970505,225.363022 &#xA;&#x9;C151.564407,225.688339 151.107681,225.756531 150.315048,225.725983 &#xA;z"/>
  <path fill="#26355D" stroke="none" d="&#xA;M209.318359,225.814346 &#xA;&#x9;C209.491333,225.163895 210.001846,224.617813 210.824432,224.068848 &#xA;&#x9;C210.642960,224.683548 210.149429,225.301132 209.318359,225.814346 &#xA;z"/>
  <path fill="#202D51" stroke="none" d="&#xA;M86.552414,240.456757 &#xA;&#x9;C85.891281,240.341431 85.042236,239.949661 84.180435,239.159882 &#xA;&#x9;C84.899956,239.234680 85.632225,239.707504 86.552414,240.456757 &#xA;z"/>
  <path fill="#222C51" stroke="none" d="&#xA;M419.916809,434.366394 &#xA;&#x9;C420.641815,434.410370 421.276337,434.824402 421.961731,435.545044 &#xA;&#x9;C421.283813,435.479919 420.555084,435.108185 419.916809,434.366394 &#xA;z"/>
  <path fill="#202D51" stroke="none" d="&#xA;M64.634460,242.907928 &#xA;&#x9;C64.888100,243.142166 64.780289,243.443726 64.350883,243.844910 &#xA;&#x9;C64.233627,243.665466 64.314873,243.342377 64.634460,242.907928 &#xA;z"/>
  <path fill="#E7EBF4" stroke="none" d="&#xA;M79.650528,253.646225 &#xA;&#x9;C76.974220,253.383636 74.337730,253.372772 72.378319,252.215500 &#xA;&#x9;C71.586258,251.747711 71.550598,248.126877 72.467751,247.105011 &#xA;&#x9;C73.649796,245.788010 76.225044,244.911118 78.038292,245.138138 &#xA;&#x9;C81.920700,245.624237 82.697701,249.599152 79.650528,253.646225 &#xA;z"/>
  <path fill="#E8ECF2" stroke="none" d="&#xA;M86.069656,92.846100 &#xA;&#x9;C88.949989,90.692062 91.802589,90.460335 93.790131,93.075920 &#xA;&#x9;C94.757385,94.348801 95.177055,97.404312 94.350922,98.355316 &#xA;&#x9;C93.090652,99.806084 90.293587,101.141647 88.577888,100.731636 &#xA;&#x9;C84.591423,99.778984 83.546402,96.828018 86.069656,92.846100 &#xA;z"/>
  <path fill="#E7ECF2" stroke="none" d="&#xA;M60.070694,193.168060 &#xA;&#x9;C56.205769,192.694626 54.312805,190.408569 55.522690,187.370773 &#xA;&#x9;C56.220795,185.618011 59.117813,183.767365 61.020603,183.772095 &#xA;&#x9;C62.579754,183.775986 65.113991,186.253830 65.475967,187.996445 &#xA;&#x9;C66.154655,191.263672 63.830666,193.049927 60.070694,193.168060 &#xA;z"/>
  <path fill="#E7EBF2" stroke="none" d="&#xA;M154.250214,123.755203 &#xA;&#x9;C156.484940,126.576393 156.549637,129.356140 153.604919,130.673843 &#xA;&#x9;C151.772263,131.493912 148.761841,131.205078 147.033173,130.163696 &#xA;&#x9;C145.994461,129.537964 145.554504,126.020737 146.336182,124.658234 &#xA;&#x9;C148.066971,121.641373 151.047836,121.408379 154.250214,123.755203 &#xA;z"/>
  <path fill="#EBF0F5" stroke="none" d="&#xA;M181.093140,314.467773 &#xA;&#x9;C178.570328,314.840942 176.126678,315.464661 174.094498,314.810364 &#xA;&#x9;C173.042679,314.471741 171.902512,311.628082 172.277405,310.348297 &#xA;&#x9;C172.735153,308.785675 174.549164,307.051086 176.136948,306.563019 &#xA;&#x9;C177.486450,306.148193 180.229553,306.943298 180.780014,308.013611 &#xA;&#x9;C181.656403,309.717682 181.222595,312.095612 181.093140,314.467773 &#xA;z"/>
  <path fill="#ECF1F7" stroke="none" d="&#xA;M154.158157,343.313416 &#xA;&#x9;C153.216568,344.417511 152.262054,345.943970 151.584381,345.829651 &#xA;&#x9;C149.136002,345.416595 146.780731,344.451630 144.390320,343.695068 &#xA;&#x9;C145.133896,341.594513 145.272141,338.692139 146.755875,337.572021 &#xA;&#x9;C149.296417,335.654114 152.150345,336.828552 153.779404,339.659302 &#xA;&#x9;C154.299240,340.562561 154.127533,341.863800 154.158157,343.313416 &#xA;z"/>
  <path fill="#EBEEF3" stroke="none" d="&#xA;M121.120285,276.949341 &#xA;&#x9;C123.483521,279.713989 123.446182,282.491730 120.620422,283.855835 &#xA;&#x9;C118.813850,284.727966 115.790482,284.475067 114.013504,283.477783 &#xA;&#x9;C112.984840,282.900452 112.511086,279.407959 113.252007,277.995728 &#xA;&#x9;C114.916145,274.823792 117.923645,274.876984 121.120285,276.949341 &#xA;z"/>
  <path fill="#EBEFF5" stroke="none" d="&#xA;M110.734222,153.395172 &#xA;&#x9;C114.669899,152.297684 117.881828,152.979248 118.015991,157.085358 &#xA;&#x9;C118.071060,158.770828 115.712494,161.345795 113.899513,162.011200 &#xA;&#x9;C112.578400,162.496094 109.282906,160.890930 108.806862,159.536133 &#xA;&#x9;C108.242699,157.930573 109.760498,155.593475 110.734222,153.395172 &#xA;z"/>
  <path fill="#EBEDF5" stroke="none" d="&#xA;M141.278534,221.445953 &#xA;&#x9;C138.741043,223.694000 136.040665,224.980118 133.163528,222.638199 &#xA;&#x9;C130.667435,220.606461 130.778183,218.098541 132.829803,215.300995 &#xA;&#x9;C132.962738,214.983459 132.997025,214.998032 133.360916,214.901016 &#xA;&#x9;C139.430664,213.298294 141.458496,214.864243 141.699066,220.961899 &#xA;&#x9;C141.699066,220.961899 141.327316,221.223862 141.278534,221.445953 &#xA;z"/>
  <path fill="#26355D" stroke="none" d="&#xA;M142.075073,220.932663 &#xA;&#x9;C141.458496,214.864243 139.430664,213.298294 133.354645,214.884018 &#xA;&#x9;C136.154343,211.691269 139.512939,211.595840 142.923904,214.269897 &#xA;&#x9;C146.261597,216.886551 144.667419,218.843887 142.075073,220.932663 &#xA;z"/>
  <path fill="#F8FAFC" stroke="none" d="&#xA;M267.845276,404.008118 &#xA;&#x9;C270.459137,403.866821 272.225555,403.871338 272.067261,406.973572 &#xA;&#x9;C271.840393,411.419647 272.009430,415.885956 272.009430,420.662720 &#xA;&#x9;C263.930298,420.662720 256.205658,420.662720 248.473694,420.662720 &#xA;&#x9;C245.613739,408.781067 250.907990,403.030029 261.387512,403.978363 &#xA;&#x9;C263.365479,404.157379 265.373322,404.006592 267.845276,404.008118 &#xA;z"/>
  <path fill="#F6F8FA" stroke="none" d="&#xA;M85.971115,420.991302 &#xA;&#x9;C81.018356,420.990997 76.556175,420.990997 72.161858,420.990997 &#xA;&#x9;C69.055885,408.132690 75.671661,402.936951 85.138458,403.942719 &#xA;&#x9;C88.537094,404.303802 92.006317,404.000641 95.649979,404.000641 &#xA;&#x9;C95.649979,409.737000 95.649979,414.982147 95.649979,420.991608 &#xA;&#x9;C92.599831,420.991608 89.530762,420.991608 85.971115,420.991302 &#xA;z"/>
  <path fill="#F7F8FB" stroke="none" d="&#xA;M200.598267,410.630890 &#xA;&#x9;C200.910248,418.204071 198.532227,420.850647 191.607986,420.971771 &#xA;&#x9;C187.455856,421.044403 183.301208,420.987396 179.147873,420.961639 &#xA;&#x9;C178.674210,420.958710 178.201645,420.781189 177.464539,420.630707 &#xA;&#x9;C177.464539,415.249084 177.464539,409.875549 177.464539,404.087585 &#xA;&#x9;C182.928467,404.087585 188.321198,403.420410 193.416138,404.363007 &#xA;&#x9;C196.049255,404.850098 198.153732,408.194641 200.598267,410.630890 &#xA;z"/>
  <path fill="#FAFBFC" stroke="none" d="&#xA;M145.175995,419.414429 &#xA;&#x9;C138.211411,420.292267 131.558792,420.902039 124.713570,421.529480 &#xA;&#x9;C124.713570,415.160583 124.713570,409.884003 124.713570,404.068542 &#xA;&#x9;C130.011673,404.068542 135.305252,403.641052 140.501358,404.170380 &#xA;&#x9;C147.990921,404.933350 150.368683,412.526001 145.175995,419.414429 &#xA;z"/>
</svg>